<svg width="26" height="16" viewBox="0 0 26 16" fill="none" xmlns="http://www.w3.org/2000/svg">
<mask id="path-1-inside-1_548_927" fill="white">
<path d="M25.9961 0H-0.00183487V15.9999H25.9961V0Z"/>
</mask>
<path d="M24.9961 15.9999V0H26.9961V15.9999H24.9961Z" fill="#DDDDD0" mask="url(#path-1-inside-1_548_927)"/>
<path d="M11.3451 6.98063H9.30546V9.02023H11.3451V6.98063Z" fill="#DDDDD0"/>
<path d="M9.01693 6.98063H6.97733V9.02023H9.01693V6.98063Z" fill="#DDDDD0"/>
<path d="M6.6888 11.6338H4.64921V13.6734H6.6888V11.6338Z" fill="#DDDDD0"/>
<path d="M9.01693 13.9603H6.97733V15.9999H9.01693V13.9603Z" fill="#DDDDD0"/>
<path d="M9.01693 0H6.97733V2.0396H9.01693V0Z" fill="#DDDDD0"/>
<path d="M15.9961 6.98063H13.9565V9.02023H15.9961V6.98063Z" fill="#DDDDD0"/>
<path d="M13.668 6.98063H11.6284V9.02023H13.668V6.98063Z" fill="#DDDDD0"/>
<path d="M4.36068 4.65316H2.32108V6.69275H4.36068V4.65316Z" fill="#DDDDD0"/>
<path d="M6.6888 6.98063H4.64921V9.02023H6.6888V6.98063Z" fill="#DDDDD0"/>
<path d="M4.36068 6.98063H2.32108V9.02023H4.36068V6.98063Z" fill="#DDDDD0"/>
<path d="M2.03776 6.98063H-0.00183487V9.02023H2.03776V6.98063Z" fill="#DDDDD0"/>
<path d="M6.6888 2.3265H4.64921V4.36609H6.6888V2.3265Z" fill="#DDDDD0"/>
<path d="M4.36068 9.30729H2.32108V11.3469H4.36068V9.30729Z" fill="#DDDDD0"/>
</svg>
