<svg width="26" height="16" viewBox="0 0 26 16" fill="none" xmlns="http://www.w3.org/2000/svg">
<mask id="path-1-inside-1_548_930" fill="white">
<path d="M0.00390625 0H26.0018V15.9999H0.00390625V0Z"/>
</mask>
<path d="M1.00391 15.9999V0H-0.996094V15.9999H1.00391Z" fill="#DDDDD0" mask="url(#path-1-inside-1_548_930)"/>
<path d="M14.6549 6.98063H16.6945V9.02023H14.6549V6.98063Z" fill="#DDDDD0"/>
<path d="M16.9831 6.98063H19.0227V9.02023H16.9831V6.98063Z" fill="#DDDDD0"/>
<path d="M19.3112 11.6338H21.3508V13.6734H19.3112V11.6338Z" fill="#DDDDD0"/>
<path d="M16.9831 13.9603H19.0227V15.9999H16.9831V13.9603Z" fill="#DDDDD0"/>
<path d="M16.9831 0H19.0227V2.0396H16.9831V0Z" fill="#DDDDD0"/>
<path d="M10.0039 6.98063H12.0435V9.02023H10.0039V6.98063Z" fill="#DDDDD0"/>
<path d="M12.332 6.98063H14.3716V9.02023H12.332V6.98063Z" fill="#DDDDD0"/>
<path d="M21.6393 4.65316H23.6789V6.69275H21.6393V4.65316Z" fill="#DDDDD0"/>
<path d="M19.3112 6.98063H21.3508V9.02023H19.3112V6.98063Z" fill="#DDDDD0"/>
<path d="M21.6393 6.98063H23.6789V9.02023H21.6393V6.98063Z" fill="#DDDDD0"/>
<path d="M23.9622 6.98063H26.0018V9.02023H23.9622V6.98063Z" fill="#DDDDD0"/>
<path d="M19.3112 2.3265H21.3508V4.36609H19.3112V2.3265Z" fill="#DDDDD0"/>
<path d="M21.6393 9.30729H23.6789V11.3469H21.6393V9.30729Z" fill="#DDDDD0"/>
</svg>
