<svg width="656" height="32" viewBox="0 0 656 32" fill="none" xmlns="http://www.w3.org/2000/svg">
<line y1="15.75" x2="296" y2="15.75" stroke="#B8B8AD" stroke-width="0.5"/>
<circle cx="328" cy="16" r="15.814" fill="#B8B8AD" stroke="#B8B8AD" stroke-width="0.372093"/>
<mask id="path-3-outside-1_548_992" maskUnits="userSpaceOnUse" x="316.582" y="4.20935" width="23" height="23" fill="black">
<rect fill="white" x="316.582" y="4.20935" width="23" height="23"/>
<path d="M333.009 20.6467C333.009 20.1733 333.081 19.8028 333.225 19.5352C333.37 19.247 333.565 19.103 333.813 19.103V18.3311C334.843 18.3311 335.359 18.0635 335.359 17.5283H334.586C334.586 16.7256 334.637 16.1184 334.74 15.7067C334.843 15.2745 334.967 14.9246 335.111 14.657C335.276 14.3688 335.359 14.1733 335.359 14.0704V13.6999H336.131C336.131 12.1356 335.864 11.3534 335.328 11.3534C335.328 11.8474 335.256 12.2282 335.111 12.4958C334.988 12.7634 334.802 12.8971 334.555 12.8971V13.669C333.957 13.669 333.555 13.8028 333.349 14.0704C333.143 14.3174 332.999 14.6673 332.916 15.1201C332.834 15.4494 332.751 15.6759 332.669 15.7994C332.607 15.9229 332.463 15.9846 332.236 15.9846C332.236 17.0343 331.989 17.5592 331.494 17.5592C331.494 16.6741 331.443 16.0669 331.34 15.7376C331.236 15.4083 331.103 15.1613 330.938 14.9966C330.773 14.832 330.69 14.657 330.69 14.4718H331.463V15.2436H332.267C332.267 14.4615 332.226 13.844 332.143 13.3911C332.061 12.9383 331.937 12.4443 331.772 11.9092C331.587 11.3946 331.494 10.952 331.494 10.5815C330.979 10.5815 330.721 10.3243 330.721 9.80968H329.948C329.948 9.2951 329.907 8.9246 329.825 8.69819C329.742 8.47177 329.619 8.28653 329.454 8.14244C329.351 8.03953 329.278 7.9469 329.237 7.86457C329.196 7.78224 329.175 7.65874 329.175 7.49408H328.372C328.145 7.32941 327.743 7.12358 327.166 6.87658C326.609 6.609 326.218 6.47521 325.991 6.47521C325.95 6.47521 325.867 6.51638 325.744 6.59871C325.641 6.68104 325.486 6.72221 325.28 6.72221V7.49408C325.404 7.55583 325.703 7.62787 326.177 7.7102C326.671 7.79253 327.073 7.8337 327.382 7.8337C327.609 7.8337 327.784 7.78224 327.908 7.67932C328.032 7.55583 328.186 7.49408 328.372 7.49408C327.691 8.27623 327.197 8.9246 326.888 9.43918C326.579 9.95376 326.424 10.4683 326.424 10.9829C326.424 11.2093 326.486 11.4152 326.609 11.6004C326.754 11.7651 326.826 11.9503 326.826 12.1562C327.011 11.9915 327.228 11.7239 327.475 11.3534C327.743 10.9829 327.877 10.705 327.877 10.5198C327.877 10.458 327.856 10.4066 327.815 10.3654C327.774 10.3243 327.733 10.2728 327.691 10.211C327.65 10.1287 327.63 10.0052 327.63 9.84055H328.372V10.6124H329.145C329.145 11.0858 329.072 11.4563 328.928 11.7239C328.804 11.9915 328.619 12.1253 328.372 12.1253V12.8971C327.63 12.8971 327.063 12.8354 326.671 12.7119C326.28 12.5678 326.084 12.3723 326.084 12.1253H325.311C325.311 11.3843 325.239 10.8182 325.095 10.4272C324.971 10.0155 324.775 9.80968 324.507 9.80968V10.5815H323.734C323.734 10.2522 323.817 9.71705 323.982 8.97606C324.167 8.21448 324.435 7.52495 324.785 6.90746C325.136 6.28996 325.569 5.98122 326.084 5.98122C326.084 5.73422 326.218 5.54897 326.486 5.42547C326.754 5.28139 327.135 5.20935 327.63 5.20935C328.104 5.20935 328.475 5.28139 328.743 5.42547C329.011 5.54897 329.145 5.73422 329.145 5.98122H329.917C329.917 6.76337 329.969 7.32941 330.072 7.67932C330.175 8.00865 330.309 8.26594 330.474 8.45119C330.536 8.53352 330.587 8.62615 330.628 8.72906C330.67 8.81139 330.69 8.9246 330.69 9.06868H331.463C331.463 9.58326 331.504 9.95376 331.587 10.1802C331.69 10.386 331.814 10.5713 331.958 10.7359C332.061 10.8388 332.133 10.9315 332.174 11.0138C332.215 11.0961 332.236 11.2196 332.236 11.3843H333.009C333.009 12.4134 333.277 12.928 333.813 12.928V12.1562H334.586C334.586 11.0652 334.534 10.3037 334.431 9.87142C334.328 9.4186 334.194 9.08927 334.029 8.88344C333.885 8.65702 333.813 8.45119 333.813 8.26594C333.318 8.26594 332.937 8.13215 332.669 7.86457C332.401 7.59699 332.267 7.2162 332.267 6.72221C332.267 6.2488 332.401 5.8783 332.669 5.61072C332.937 5.34314 333.318 5.20935 333.813 5.20935C334.287 5.20935 334.658 5.28139 334.926 5.42547C335.194 5.54897 335.328 5.73422 335.328 5.98122H336.101V6.75308H336.873V7.52495H337.646V8.26594C337.172 8.26594 336.801 8.20419 336.533 8.08069C336.265 7.93661 336.131 7.74107 336.131 7.49408H335.359V6.72221H334.586V5.95034C334.441 6.11501 334.277 6.362 334.091 6.69133C333.906 7.00008 333.813 7.23679 333.813 7.40145C333.813 7.52495 333.906 7.63816 334.091 7.74107C334.277 7.82341 334.4 7.89545 334.462 7.9572C334.524 7.99836 334.555 8.11157 334.555 8.29682H335.328C335.328 8.89373 335.4 9.35685 335.544 9.68618C335.688 10.0155 335.894 10.3551 336.162 10.705C336.389 10.9726 336.564 11.2402 336.688 11.5078C336.812 11.7548 336.873 12.0944 336.873 12.5266C336.873 13.1441 336.801 13.6176 336.657 13.9469C336.533 14.2762 336.348 14.4409 336.101 14.4409V15.2127H335.328C335.328 15.7479 335.369 16.1287 335.451 16.3551C335.534 16.5609 335.657 16.7565 335.822 16.9417C335.925 17.0446 335.998 17.1373 336.039 17.2196C336.08 17.3019 336.101 17.4151 336.101 17.5592H336.873V18.3002C336.399 18.3002 336.039 18.3517 335.791 18.4546C335.565 18.5369 335.369 18.6501 335.204 18.7942C334.977 18.9795 334.761 19.0721 334.555 19.0721V19.8439H333.782V20.6467H333.009ZM320.272 26.7907C319.509 26.7907 319.128 26.5335 319.128 26.0189H318.355V25.247H317.582C317.582 24.506 317.644 23.94 317.768 23.5489C317.912 23.1578 318.108 22.9623 318.355 22.9623V22.1904H319.128V21.4186H319.901V20.6467C320.23 20.6467 320.498 20.6158 320.705 20.5541C320.911 20.4923 321.148 20.3997 321.416 20.2762C321.663 20.1527 321.9 20.0601 322.127 19.9983C322.353 19.916 322.642 19.8748 322.992 19.8748C322.992 19.6072 322.961 19.3499 322.9 19.103C322.838 18.856 322.766 18.6192 322.683 18.3928C322.539 18.0018 322.425 17.6416 322.343 17.3122C322.261 16.9623 322.219 16.5198 322.219 15.9846H322.961C322.961 16.2316 323.003 16.4683 323.085 16.6947C323.167 16.9006 323.26 17.0961 323.363 17.2813C323.611 17.693 323.734 18.0429 323.734 18.3311H324.538V17.5592H325.311C325.311 16.7153 325.259 16.1287 325.156 15.7994C325.053 15.47 324.919 15.2127 324.754 15.0275C324.61 14.8422 324.538 14.6467 324.538 14.4409H323.765V13.669H322.961C322.961 14.6982 322.714 15.2127 322.219 15.2127V15.9846C321.684 15.9846 321.251 16.0258 320.921 16.1081C320.591 16.1904 320.23 16.3036 319.839 16.4477C319.612 16.5301 319.375 16.6021 319.128 16.6639C318.901 16.7256 318.643 16.7565 318.355 16.7565V16.0155H319.128V15.2436C319.313 15.0995 319.55 14.8628 319.839 14.5335C320.127 14.1836 320.272 13.916 320.272 13.7308C320.272 13.6484 320.138 13.5661 319.87 13.4838C319.622 13.4014 319.437 13.3294 319.313 13.2676C319.19 13.2059 319.128 13.0824 319.128 12.8971H318.355V12.0635C318.355 11.2814 318.314 10.6639 318.231 10.211C318.149 9.73763 318.025 9.27451 317.86 8.82169C317.675 8.30711 317.582 7.86457 317.582 7.49408C317.582 7.02066 317.644 6.65017 317.768 6.38259C317.912 6.09442 318.108 5.95034 318.355 5.95034C319.056 6.7325 319.55 7.12358 319.839 7.12358C319.921 7.12358 320.004 7.00008 320.086 6.75308C320.169 6.4855 320.241 6.28996 320.303 6.16646C320.364 6.04297 320.488 5.98122 320.674 5.98122V5.20935C321.416 5.20935 321.982 5.34314 322.374 5.61072C322.766 5.85772 322.961 6.22821 322.961 6.72221C322.961 7.75136 322.714 8.26594 322.219 8.26594C322.075 8.12186 321.838 7.93661 321.508 7.7102C321.179 7.4632 320.942 7.3397 320.797 7.3397C320.694 7.3397 320.643 7.40145 320.643 7.52495C321.158 7.52495 321.416 7.77195 321.416 8.26594H320.643V9.03781H319.87V9.80968H319.097C319.2 10.0155 319.447 10.386 319.839 10.9212C320.23 11.4357 320.509 11.693 320.674 11.693C320.735 11.693 320.797 11.5798 320.859 11.3534C320.921 11.127 320.983 10.952 321.045 10.8285C321.127 10.6845 321.261 10.6124 321.446 10.6124V9.84055H322.188C322.188 10.314 322.116 10.6845 321.972 10.952C321.848 11.2196 321.663 11.3534 321.416 11.3534C321.601 11.6004 321.869 11.9092 322.219 12.2796C322.59 12.6501 322.848 12.8354 322.992 12.8354C323.034 12.8354 323.085 12.7634 323.147 12.6193C323.229 12.4752 323.312 12.362 323.394 12.2796C323.477 12.1767 323.59 12.1253 323.734 12.1253C323.734 12.7016 323.817 13.103 323.982 13.3294C324.167 13.5558 324.425 13.7308 324.754 13.8543C324.961 13.9572 325.095 14.0498 325.156 14.1321C325.239 14.1939 325.28 14.3071 325.28 14.4718H326.053V14.6879C326.053 15.9023 325.878 16.9417 325.527 17.8062C325.177 18.6501 324.579 19.0721 323.734 19.0721C323.734 19.5661 323.775 19.9366 323.858 20.1836C323.961 20.41 324.105 20.6261 324.291 20.8319C324.353 20.9143 324.404 20.9966 324.445 21.0789C324.507 21.1613 324.538 21.2642 324.538 21.3877C324.043 21.3877 323.662 21.3259 323.394 21.2024C323.126 21.0583 322.992 20.8628 322.992 20.6158H322.188V21.3877C321.673 21.3877 321.313 21.4288 321.106 21.5112C320.9 21.5935 320.715 21.717 320.55 21.8817C320.447 21.9846 320.354 22.0566 320.272 22.0978C320.189 22.139 320.055 22.1595 319.87 22.1595V22.9314C319.684 23.1372 319.468 23.4254 319.221 23.7959C318.973 24.1458 318.85 24.4031 318.85 24.5678C318.85 24.6089 318.891 24.6913 318.973 24.8148C319.056 24.9177 319.097 25.0721 319.097 25.2779H319.87V26.0498C320.364 26.0498 320.725 26.0086 320.952 25.9263C321.179 25.8439 321.385 25.7204 321.57 25.5558C321.653 25.4734 321.745 25.4117 321.848 25.3705C321.951 25.3088 322.075 25.2779 322.219 25.2779C322.219 24.7839 322.178 24.4237 322.096 24.1973C322.013 23.9709 321.89 23.765 321.725 23.5798C321.622 23.4769 321.55 23.3842 321.508 23.3019C321.467 23.2196 321.446 23.1064 321.446 22.9623C321.921 22.9623 322.292 23.0961 322.559 23.3637C322.827 23.6107 322.961 23.9811 322.961 24.4751C321.89 26.0189 320.993 26.7907 320.272 26.7907ZM319.128 19.0721H319.901V19.8439H319.128V19.0721ZM318.355 18.3002H317.582C317.582 17.8268 317.644 17.4563 317.768 17.1887C317.912 16.9006 318.108 16.7565 318.355 16.7565C318.355 17.2299 318.396 17.5798 318.479 17.8062C318.561 18.012 318.685 18.2179 318.85 18.4237C319.035 18.6501 319.128 18.8662 319.128 19.0721H318.355V18.3002ZM319.901 18.3002H320.674V19.0721H319.901V18.3002ZM320.674 17.5592H321.416V18.3002H320.674V17.5592ZM328.372 26.7907C327.63 26.7907 327.063 26.7187 326.671 26.5746C326.28 26.4511 326.084 26.2659 326.084 26.0189H325.311C325.311 25.2367 325.27 24.6295 325.187 24.1973C325.105 23.7444 324.981 23.2916 324.816 22.8388C324.631 22.283 324.538 21.7993 324.538 21.3877H325.28V22.1904C325.28 22.705 325.548 22.9623 326.084 22.9623V22.1904H326.857V21.4186H327.63V20.6467H328.403V19.8748H329.175V19.0721H328.403V18.3002H327.63C327.63 17.5592 327.691 16.9932 327.815 16.6021C327.959 16.211 328.155 16.0155 328.403 16.0155C328.403 16.3242 328.475 16.7359 328.619 17.2505C328.763 17.7445 328.949 18.1767 329.175 18.5472C329.423 18.9177 329.68 19.103 329.948 19.103V18.3311H330.721V17.5592H331.494C331.494 18.5678 331.236 19.0721 330.721 19.0721V19.8439H329.917V20.6158H329.145V21.3877H328.372V22.1595H327.599V22.9314H326.826V23.7033H326.053C326.053 24.1973 326.094 24.5575 326.177 24.7839C326.259 25.0103 326.383 25.2161 326.548 25.4014C326.63 25.4837 326.692 25.5763 326.733 25.6793C326.795 25.7822 326.826 25.9057 326.826 26.0498H327.63V25.2779H328.372V24.4751H329.145C329.145 24.9486 329.072 25.3293 328.928 25.6175C328.804 25.8851 328.619 26.0189 328.372 26.0189V26.7907ZM327.63 23.7342H328.372V24.4751H327.63V23.7342ZM330.721 26.7907C330.721 26.3173 330.783 25.9468 330.907 25.6793C331.051 25.4117 331.247 25.2779 331.494 25.2779V24.506H332.267C332.267 23.5592 332.174 22.8594 331.989 22.4065C331.824 21.9537 331.587 21.5421 331.278 21.1716C331.092 20.9451 330.948 20.7393 330.845 20.5541C330.762 20.3688 330.721 20.1321 330.721 19.8439H331.463V20.6467H332.236V21.4186H333.009V21.9125C332.947 22.0772 332.896 22.3962 332.854 22.8697C332.813 23.3225 332.793 23.8371 332.793 24.4134C332.793 24.9897 332.865 25.2779 333.009 25.2779V26.0498C333.586 26.0498 333.988 25.916 334.215 25.6484C334.441 25.3808 334.617 25.0103 334.74 24.5369C334.823 24.2487 334.895 24.0429 334.957 23.9194C335.039 23.7959 335.173 23.7342 335.359 23.7342C335.359 22.7873 335.256 22.1595 335.049 21.8508C334.843 21.5215 334.565 21.2848 334.215 21.1407C334.07 21.0789 333.957 21.0172 333.875 20.9554C333.813 20.8937 333.782 20.7908 333.782 20.6467C334.524 20.6467 335.091 20.8113 335.482 21.1407C335.894 21.47 336.101 21.9434 336.101 22.5609C336.101 23.1784 336.028 23.6518 335.884 23.9811C335.76 24.3105 335.575 24.4751 335.328 24.4751V25.2779C335.822 25.2779 336.183 25.2367 336.41 25.1544C336.636 25.0721 336.843 24.9486 337.028 24.7839C337.214 24.5986 337.43 24.506 337.677 24.506C337.677 23.6827 337.626 23.1064 337.523 22.777C337.42 22.4271 337.286 22.1595 337.121 21.9743C336.977 21.789 336.904 21.5935 336.904 21.3877C336.904 20.8937 337.152 20.6467 337.646 20.6467V21.4186H338.419C338.419 22.5095 338.368 23.3122 338.265 23.8268C338.162 24.3208 338.028 24.7119 337.863 25C337.718 25.2676 337.646 25.4734 337.646 25.6175V26.0189C336.781 26.0189 336.111 26.0703 335.637 26.1733C335.163 26.2762 334.73 26.41 334.338 26.5746C333.988 26.7187 333.679 26.7907 333.411 26.7907C332.648 26.7907 332.267 26.5335 332.267 26.0189H331.463V26.7907H330.721ZM323.734 11.3534H324.507V12.1253H323.734V11.3534ZM322.992 10.5815H323.734V11.3534H322.992V10.5815ZM318.355 5.20935H319.097V5.95034H318.355V5.20935ZM328.403 16.0155C328.403 15.2745 328.495 14.7085 328.681 14.3174C328.887 13.9057 329.175 13.6999 329.546 13.6999C330.309 13.6999 330.69 13.9572 330.69 14.4718C330.113 14.4718 329.711 14.5644 329.485 14.7496C329.258 14.9349 329.093 15.1819 328.99 15.4906C328.907 15.6759 328.825 15.8097 328.743 15.892C328.681 15.9743 328.567 16.0155 328.403 16.0155ZM336.873 17.5592C336.873 17.0652 336.935 16.6844 337.059 16.4169C337.203 16.1493 337.399 16.0155 337.646 16.0155C337.646 16.4889 337.574 16.8697 337.43 17.1578C337.306 17.4254 337.121 17.5592 336.873 17.5592ZM337.646 7.52495C337.646 7.03096 337.708 6.65017 337.832 6.38259C337.976 6.11501 338.172 5.98122 338.419 5.98122C338.419 6.45463 338.347 6.83542 338.203 7.12358C338.079 7.39116 337.894 7.52495 337.646 7.52495Z"/>
</mask>
<path d="M333.009 20.6467C333.009 20.1733 333.081 19.8028 333.225 19.5352C333.37 19.247 333.565 19.103 333.813 19.103V18.3311C334.843 18.3311 335.359 18.0635 335.359 17.5283H334.586C334.586 16.7256 334.637 16.1184 334.74 15.7067C334.843 15.2745 334.967 14.9246 335.111 14.657C335.276 14.3688 335.359 14.1733 335.359 14.0704V13.6999H336.131C336.131 12.1356 335.864 11.3534 335.328 11.3534C335.328 11.8474 335.256 12.2282 335.111 12.4958C334.988 12.7634 334.802 12.8971 334.555 12.8971V13.669C333.957 13.669 333.555 13.8028 333.349 14.0704C333.143 14.3174 332.999 14.6673 332.916 15.1201C332.834 15.4494 332.751 15.6759 332.669 15.7994C332.607 15.9229 332.463 15.9846 332.236 15.9846C332.236 17.0343 331.989 17.5592 331.494 17.5592C331.494 16.6741 331.443 16.0669 331.34 15.7376C331.236 15.4083 331.103 15.1613 330.938 14.9966C330.773 14.832 330.69 14.657 330.69 14.4718H331.463V15.2436H332.267C332.267 14.4615 332.226 13.844 332.143 13.3911C332.061 12.9383 331.937 12.4443 331.772 11.9092C331.587 11.3946 331.494 10.952 331.494 10.5815C330.979 10.5815 330.721 10.3243 330.721 9.80968H329.948C329.948 9.2951 329.907 8.9246 329.825 8.69819C329.742 8.47177 329.619 8.28653 329.454 8.14244C329.351 8.03953 329.278 7.9469 329.237 7.86457C329.196 7.78224 329.175 7.65874 329.175 7.49408H328.372C328.145 7.32941 327.743 7.12358 327.166 6.87658C326.609 6.609 326.218 6.47521 325.991 6.47521C325.95 6.47521 325.867 6.51638 325.744 6.59871C325.641 6.68104 325.486 6.72221 325.28 6.72221V7.49408C325.404 7.55583 325.703 7.62787 326.177 7.7102C326.671 7.79253 327.073 7.8337 327.382 7.8337C327.609 7.8337 327.784 7.78224 327.908 7.67932C328.032 7.55583 328.186 7.49408 328.372 7.49408C327.691 8.27623 327.197 8.9246 326.888 9.43918C326.579 9.95376 326.424 10.4683 326.424 10.9829C326.424 11.2093 326.486 11.4152 326.609 11.6004C326.754 11.7651 326.826 11.9503 326.826 12.1562C327.011 11.9915 327.228 11.7239 327.475 11.3534C327.743 10.9829 327.877 10.705 327.877 10.5198C327.877 10.458 327.856 10.4066 327.815 10.3654C327.774 10.3243 327.733 10.2728 327.691 10.211C327.65 10.1287 327.63 10.0052 327.63 9.84055H328.372V10.6124H329.145C329.145 11.0858 329.072 11.4563 328.928 11.7239C328.804 11.9915 328.619 12.1253 328.372 12.1253V12.8971C327.63 12.8971 327.063 12.8354 326.671 12.7119C326.28 12.5678 326.084 12.3723 326.084 12.1253H325.311C325.311 11.3843 325.239 10.8182 325.095 10.4272C324.971 10.0155 324.775 9.80968 324.507 9.80968V10.5815H323.734C323.734 10.2522 323.817 9.71705 323.982 8.97606C324.167 8.21448 324.435 7.52495 324.785 6.90746C325.136 6.28996 325.569 5.98122 326.084 5.98122C326.084 5.73422 326.218 5.54897 326.486 5.42547C326.754 5.28139 327.135 5.20935 327.63 5.20935C328.104 5.20935 328.475 5.28139 328.743 5.42547C329.011 5.54897 329.145 5.73422 329.145 5.98122H329.917C329.917 6.76337 329.969 7.32941 330.072 7.67932C330.175 8.00865 330.309 8.26594 330.474 8.45119C330.536 8.53352 330.587 8.62615 330.628 8.72906C330.67 8.81139 330.69 8.9246 330.69 9.06868H331.463C331.463 9.58326 331.504 9.95376 331.587 10.1802C331.69 10.386 331.814 10.5713 331.958 10.7359C332.061 10.8388 332.133 10.9315 332.174 11.0138C332.215 11.0961 332.236 11.2196 332.236 11.3843H333.009C333.009 12.4134 333.277 12.928 333.813 12.928V12.1562H334.586C334.586 11.0652 334.534 10.3037 334.431 9.87142C334.328 9.4186 334.194 9.08927 334.029 8.88344C333.885 8.65702 333.813 8.45119 333.813 8.26594C333.318 8.26594 332.937 8.13215 332.669 7.86457C332.401 7.59699 332.267 7.2162 332.267 6.72221C332.267 6.2488 332.401 5.8783 332.669 5.61072C332.937 5.34314 333.318 5.20935 333.813 5.20935C334.287 5.20935 334.658 5.28139 334.926 5.42547C335.194 5.54897 335.328 5.73422 335.328 5.98122H336.101V6.75308H336.873V7.52495H337.646V8.26594C337.172 8.26594 336.801 8.20419 336.533 8.08069C336.265 7.93661 336.131 7.74107 336.131 7.49408H335.359V6.72221H334.586V5.95034C334.441 6.11501 334.277 6.362 334.091 6.69133C333.906 7.00008 333.813 7.23679 333.813 7.40145C333.813 7.52495 333.906 7.63816 334.091 7.74107C334.277 7.82341 334.4 7.89545 334.462 7.9572C334.524 7.99836 334.555 8.11157 334.555 8.29682H335.328C335.328 8.89373 335.4 9.35685 335.544 9.68618C335.688 10.0155 335.894 10.3551 336.162 10.705C336.389 10.9726 336.564 11.2402 336.688 11.5078C336.812 11.7548 336.873 12.0944 336.873 12.5266C336.873 13.1441 336.801 13.6176 336.657 13.9469C336.533 14.2762 336.348 14.4409 336.101 14.4409V15.2127H335.328C335.328 15.7479 335.369 16.1287 335.451 16.3551C335.534 16.5609 335.657 16.7565 335.822 16.9417C335.925 17.0446 335.998 17.1373 336.039 17.2196C336.08 17.3019 336.101 17.4151 336.101 17.5592H336.873V18.3002C336.399 18.3002 336.039 18.3517 335.791 18.4546C335.565 18.5369 335.369 18.6501 335.204 18.7942C334.977 18.9795 334.761 19.0721 334.555 19.0721V19.8439H333.782V20.6467H333.009ZM320.272 26.7907C319.509 26.7907 319.128 26.5335 319.128 26.0189H318.355V25.247H317.582C317.582 24.506 317.644 23.94 317.768 23.5489C317.912 23.1578 318.108 22.9623 318.355 22.9623V22.1904H319.128V21.4186H319.901V20.6467C320.23 20.6467 320.498 20.6158 320.705 20.5541C320.911 20.4923 321.148 20.3997 321.416 20.2762C321.663 20.1527 321.9 20.0601 322.127 19.9983C322.353 19.916 322.642 19.8748 322.992 19.8748C322.992 19.6072 322.961 19.3499 322.9 19.103C322.838 18.856 322.766 18.6192 322.683 18.3928C322.539 18.0018 322.425 17.6416 322.343 17.3122C322.261 16.9623 322.219 16.5198 322.219 15.9846H322.961C322.961 16.2316 323.003 16.4683 323.085 16.6947C323.167 16.9006 323.26 17.0961 323.363 17.2813C323.611 17.693 323.734 18.0429 323.734 18.3311H324.538V17.5592H325.311C325.311 16.7153 325.259 16.1287 325.156 15.7994C325.053 15.47 324.919 15.2127 324.754 15.0275C324.61 14.8422 324.538 14.6467 324.538 14.4409H323.765V13.669H322.961C322.961 14.6982 322.714 15.2127 322.219 15.2127V15.9846C321.684 15.9846 321.251 16.0258 320.921 16.1081C320.591 16.1904 320.23 16.3036 319.839 16.4477C319.612 16.5301 319.375 16.6021 319.128 16.6639C318.901 16.7256 318.643 16.7565 318.355 16.7565V16.0155H319.128V15.2436C319.313 15.0995 319.55 14.8628 319.839 14.5335C320.127 14.1836 320.272 13.916 320.272 13.7308C320.272 13.6484 320.138 13.5661 319.87 13.4838C319.622 13.4014 319.437 13.3294 319.313 13.2676C319.19 13.2059 319.128 13.0824 319.128 12.8971H318.355V12.0635C318.355 11.2814 318.314 10.6639 318.231 10.211C318.149 9.73763 318.025 9.27451 317.86 8.82169C317.675 8.30711 317.582 7.86457 317.582 7.49408C317.582 7.02066 317.644 6.65017 317.768 6.38259C317.912 6.09442 318.108 5.95034 318.355 5.95034C319.056 6.7325 319.55 7.12358 319.839 7.12358C319.921 7.12358 320.004 7.00008 320.086 6.75308C320.169 6.4855 320.241 6.28996 320.303 6.16646C320.364 6.04297 320.488 5.98122 320.674 5.98122V5.20935C321.416 5.20935 321.982 5.34314 322.374 5.61072C322.766 5.85772 322.961 6.22821 322.961 6.72221C322.961 7.75136 322.714 8.26594 322.219 8.26594C322.075 8.12186 321.838 7.93661 321.508 7.7102C321.179 7.4632 320.942 7.3397 320.797 7.3397C320.694 7.3397 320.643 7.40145 320.643 7.52495C321.158 7.52495 321.416 7.77195 321.416 8.26594H320.643V9.03781H319.87V9.80968H319.097C319.2 10.0155 319.447 10.386 319.839 10.9212C320.23 11.4357 320.509 11.693 320.674 11.693C320.735 11.693 320.797 11.5798 320.859 11.3534C320.921 11.127 320.983 10.952 321.045 10.8285C321.127 10.6845 321.261 10.6124 321.446 10.6124V9.84055H322.188C322.188 10.314 322.116 10.6845 321.972 10.952C321.848 11.2196 321.663 11.3534 321.416 11.3534C321.601 11.6004 321.869 11.9092 322.219 12.2796C322.59 12.6501 322.848 12.8354 322.992 12.8354C323.034 12.8354 323.085 12.7634 323.147 12.6193C323.229 12.4752 323.312 12.362 323.394 12.2796C323.477 12.1767 323.59 12.1253 323.734 12.1253C323.734 12.7016 323.817 13.103 323.982 13.3294C324.167 13.5558 324.425 13.7308 324.754 13.8543C324.961 13.9572 325.095 14.0498 325.156 14.1321C325.239 14.1939 325.28 14.3071 325.28 14.4718H326.053V14.6879C326.053 15.9023 325.878 16.9417 325.527 17.8062C325.177 18.6501 324.579 19.0721 323.734 19.0721C323.734 19.5661 323.775 19.9366 323.858 20.1836C323.961 20.41 324.105 20.6261 324.291 20.8319C324.353 20.9143 324.404 20.9966 324.445 21.0789C324.507 21.1613 324.538 21.2642 324.538 21.3877C324.043 21.3877 323.662 21.3259 323.394 21.2024C323.126 21.0583 322.992 20.8628 322.992 20.6158H322.188V21.3877C321.673 21.3877 321.313 21.4288 321.106 21.5112C320.9 21.5935 320.715 21.717 320.55 21.8817C320.447 21.9846 320.354 22.0566 320.272 22.0978C320.189 22.139 320.055 22.1595 319.87 22.1595V22.9314C319.684 23.1372 319.468 23.4254 319.221 23.7959C318.973 24.1458 318.85 24.4031 318.85 24.5678C318.85 24.6089 318.891 24.6913 318.973 24.8148C319.056 24.9177 319.097 25.0721 319.097 25.2779H319.87V26.0498C320.364 26.0498 320.725 26.0086 320.952 25.9263C321.179 25.8439 321.385 25.7204 321.57 25.5558C321.653 25.4734 321.745 25.4117 321.848 25.3705C321.951 25.3088 322.075 25.2779 322.219 25.2779C322.219 24.7839 322.178 24.4237 322.096 24.1973C322.013 23.9709 321.89 23.765 321.725 23.5798C321.622 23.4769 321.55 23.3842 321.508 23.3019C321.467 23.2196 321.446 23.1064 321.446 22.9623C321.921 22.9623 322.292 23.0961 322.559 23.3637C322.827 23.6107 322.961 23.9811 322.961 24.4751C321.89 26.0189 320.993 26.7907 320.272 26.7907ZM319.128 19.0721H319.901V19.8439H319.128V19.0721ZM318.355 18.3002H317.582C317.582 17.8268 317.644 17.4563 317.768 17.1887C317.912 16.9006 318.108 16.7565 318.355 16.7565C318.355 17.2299 318.396 17.5798 318.479 17.8062C318.561 18.012 318.685 18.2179 318.85 18.4237C319.035 18.6501 319.128 18.8662 319.128 19.0721H318.355V18.3002ZM319.901 18.3002H320.674V19.0721H319.901V18.3002ZM320.674 17.5592H321.416V18.3002H320.674V17.5592ZM328.372 26.7907C327.63 26.7907 327.063 26.7187 326.671 26.5746C326.28 26.4511 326.084 26.2659 326.084 26.0189H325.311C325.311 25.2367 325.27 24.6295 325.187 24.1973C325.105 23.7444 324.981 23.2916 324.816 22.8388C324.631 22.283 324.538 21.7993 324.538 21.3877H325.28V22.1904C325.28 22.705 325.548 22.9623 326.084 22.9623V22.1904H326.857V21.4186H327.63V20.6467H328.403V19.8748H329.175V19.0721H328.403V18.3002H327.63C327.63 17.5592 327.691 16.9932 327.815 16.6021C327.959 16.211 328.155 16.0155 328.403 16.0155C328.403 16.3242 328.475 16.7359 328.619 17.2505C328.763 17.7445 328.949 18.1767 329.175 18.5472C329.423 18.9177 329.68 19.103 329.948 19.103V18.3311H330.721V17.5592H331.494C331.494 18.5678 331.236 19.0721 330.721 19.0721V19.8439H329.917V20.6158H329.145V21.3877H328.372V22.1595H327.599V22.9314H326.826V23.7033H326.053C326.053 24.1973 326.094 24.5575 326.177 24.7839C326.259 25.0103 326.383 25.2161 326.548 25.4014C326.63 25.4837 326.692 25.5763 326.733 25.6793C326.795 25.7822 326.826 25.9057 326.826 26.0498H327.63V25.2779H328.372V24.4751H329.145C329.145 24.9486 329.072 25.3293 328.928 25.6175C328.804 25.8851 328.619 26.0189 328.372 26.0189V26.7907ZM327.63 23.7342H328.372V24.4751H327.63V23.7342ZM330.721 26.7907C330.721 26.3173 330.783 25.9468 330.907 25.6793C331.051 25.4117 331.247 25.2779 331.494 25.2779V24.506H332.267C332.267 23.5592 332.174 22.8594 331.989 22.4065C331.824 21.9537 331.587 21.5421 331.278 21.1716C331.092 20.9451 330.948 20.7393 330.845 20.5541C330.762 20.3688 330.721 20.1321 330.721 19.8439H331.463V20.6467H332.236V21.4186H333.009V21.9125C332.947 22.0772 332.896 22.3962 332.854 22.8697C332.813 23.3225 332.793 23.8371 332.793 24.4134C332.793 24.9897 332.865 25.2779 333.009 25.2779V26.0498C333.586 26.0498 333.988 25.916 334.215 25.6484C334.441 25.3808 334.617 25.0103 334.74 24.5369C334.823 24.2487 334.895 24.0429 334.957 23.9194C335.039 23.7959 335.173 23.7342 335.359 23.7342C335.359 22.7873 335.256 22.1595 335.049 21.8508C334.843 21.5215 334.565 21.2848 334.215 21.1407C334.07 21.0789 333.957 21.0172 333.875 20.9554C333.813 20.8937 333.782 20.7908 333.782 20.6467C334.524 20.6467 335.091 20.8113 335.482 21.1407C335.894 21.47 336.101 21.9434 336.101 22.5609C336.101 23.1784 336.028 23.6518 335.884 23.9811C335.76 24.3105 335.575 24.4751 335.328 24.4751V25.2779C335.822 25.2779 336.183 25.2367 336.41 25.1544C336.636 25.0721 336.843 24.9486 337.028 24.7839C337.214 24.5986 337.43 24.506 337.677 24.506C337.677 23.6827 337.626 23.1064 337.523 22.777C337.42 22.4271 337.286 22.1595 337.121 21.9743C336.977 21.789 336.904 21.5935 336.904 21.3877C336.904 20.8937 337.152 20.6467 337.646 20.6467V21.4186H338.419C338.419 22.5095 338.368 23.3122 338.265 23.8268C338.162 24.3208 338.028 24.7119 337.863 25C337.718 25.2676 337.646 25.4734 337.646 25.6175V26.0189C336.781 26.0189 336.111 26.0703 335.637 26.1733C335.163 26.2762 334.73 26.41 334.338 26.5746C333.988 26.7187 333.679 26.7907 333.411 26.7907C332.648 26.7907 332.267 26.5335 332.267 26.0189H331.463V26.7907H330.721ZM323.734 11.3534H324.507V12.1253H323.734V11.3534ZM322.992 10.5815H323.734V11.3534H322.992V10.5815ZM318.355 5.20935H319.097V5.95034H318.355V5.20935ZM328.403 16.0155C328.403 15.2745 328.495 14.7085 328.681 14.3174C328.887 13.9057 329.175 13.6999 329.546 13.6999C330.309 13.6999 330.69 13.9572 330.69 14.4718C330.113 14.4718 329.711 14.5644 329.485 14.7496C329.258 14.9349 329.093 15.1819 328.99 15.4906C328.907 15.6759 328.825 15.8097 328.743 15.892C328.681 15.9743 328.567 16.0155 328.403 16.0155ZM336.873 17.5592C336.873 17.0652 336.935 16.6844 337.059 16.4169C337.203 16.1493 337.399 16.0155 337.646 16.0155C337.646 16.4889 337.574 16.8697 337.43 17.1578C337.306 17.4254 337.121 17.5592 336.873 17.5592ZM337.646 7.52495C337.646 7.03096 337.708 6.65017 337.832 6.38259C337.976 6.11501 338.172 5.98122 338.419 5.98122C338.419 6.45463 338.347 6.83542 338.203 7.12358C338.079 7.39116 337.894 7.52495 337.646 7.52495Z" fill="#121212"/>
<path d="M333.009 20.6467H332.783V20.8722H333.009V20.6467ZM333.225 19.5352L333.424 19.6423L333.427 19.6362L333.225 19.5352ZM333.813 19.103V19.3285H334.038V19.103H333.813ZM333.813 18.3311V18.1056H333.587V18.3311H333.813ZM335.359 17.5283H335.584V17.3028H335.359V17.5283ZM334.586 17.5283H334.36V17.7539H334.586V17.5283ZM334.74 15.7067L334.959 15.7615L334.96 15.759L334.74 15.7067ZM335.111 14.657L334.915 14.545L334.913 14.55L335.111 14.657ZM335.359 13.6999V13.4744H335.133V13.6999H335.359ZM336.131 13.6999V13.9254H336.357V13.6999H336.131ZM335.328 11.3534V11.1279H335.102V11.3534H335.328ZM335.111 12.4958L334.912 12.3885L334.907 12.4012L335.111 12.4958ZM334.555 12.8971V12.6716H334.329V12.8971H334.555ZM334.555 13.669V13.8945H334.78V13.669H334.555ZM333.349 14.0704L333.522 14.215L333.528 14.208L333.349 14.0704ZM332.916 15.1201L333.135 15.1749L333.137 15.1677L333.138 15.1605L332.916 15.1201ZM332.669 15.7994L332.481 15.6742L332.474 15.6858L332.467 15.6984L332.669 15.7994ZM332.236 15.9846V15.7591H332.011V15.9846H332.236ZM331.34 15.7376L331.124 15.805H331.124L331.34 15.7376ZM331.463 14.4718H331.689V14.2462H331.463V14.4718ZM331.463 15.2436H331.238V15.4691H331.463V15.2436ZM332.267 15.2436V15.4691H332.493V15.2436H332.267ZM332.143 13.3911L332.365 13.3507V13.3507L332.143 13.3911ZM331.772 11.9092L331.988 11.8427L331.984 11.8327L331.772 11.9092ZM331.494 10.5815H331.72V10.356H331.494V10.5815ZM330.721 9.80968H330.947V9.58417H330.721V9.80968ZM329.948 9.80968H329.723V10.0352H329.948V9.80968ZM329.825 8.69819L330.037 8.62103V8.62103L329.825 8.69819ZM329.454 8.14244L329.294 8.30201L329.3 8.30731L329.305 8.31225L329.454 8.14244ZM329.175 7.49408H329.401V7.26857H329.175V7.49408ZM327.166 6.87658L327.068 7.08001L327.077 7.0839L327.166 6.87658ZM325.744 6.59871L325.619 6.411L325.611 6.41642L325.603 6.42253L325.744 6.59871ZM325.28 6.72221V6.4967H325.055V6.72221H325.28ZM325.28 7.49408H325.055V7.63353L325.179 7.69583L325.28 7.49408ZM326.177 7.7102L326.138 7.93239L326.14 7.93265L326.177 7.7102ZM327.908 7.67932L328.052 7.85266L328.06 7.84612L328.067 7.83889L327.908 7.67932ZM326.888 9.43918L327.081 9.55532V9.55532L326.888 9.43918ZM326.609 11.6004L326.422 11.7256L326.43 11.7379L326.44 11.749L326.609 11.6004ZM326.826 12.1562H326.6V12.6579L326.976 12.3248L326.826 12.1562ZM327.475 11.3534L327.292 11.2212L327.288 11.2282L327.475 11.3534ZM327.691 10.211L327.49 10.312L327.496 10.3246L327.504 10.3363L327.691 10.211ZM327.63 9.84055V9.61504H327.404V9.84055H327.63ZM328.372 9.84055H328.597V9.61504H328.372V9.84055ZM328.372 10.6124H328.146V10.8379H328.372V10.6124ZM329.145 10.6124H329.37V10.3869H329.145V10.6124ZM328.928 11.7239L328.729 11.6167L328.723 11.6293L328.928 11.7239ZM328.372 12.1253V11.8998H328.146V12.1253H328.372ZM328.372 12.8971V13.1227H328.597V12.8971H328.372ZM326.671 12.7119L326.593 12.9238L326.603 12.927L326.671 12.7119ZM326.084 12.1253H326.309V11.8998H326.084V12.1253ZM325.311 12.1253H325.085V12.3508H325.311V12.1253ZM325.095 10.4272L324.878 10.4922L324.883 10.5052L325.095 10.4272ZM324.507 9.80968V9.58417H324.282V9.80968H324.507ZM324.507 10.5815V10.8071H324.733V10.5815H324.507ZM323.982 8.97606L323.762 8.92268L323.761 8.92708L323.982 8.97606ZM324.785 6.90746L324.589 6.79617V6.79617L324.785 6.90746ZM326.084 5.98122V6.20672H326.309V5.98122H326.084ZM326.486 5.42547L326.58 5.63066L326.593 5.62409L326.486 5.42547ZM328.743 5.42547L328.636 5.62446L328.648 5.63027L328.743 5.42547ZM329.145 5.98122H328.919V6.20672H329.145V5.98122ZM329.917 5.98122H330.143V5.75571H329.917V5.98122ZM330.072 7.67932L329.856 7.74304L329.857 7.74667L330.072 7.67932ZM330.474 8.45119L330.654 8.31577L330.649 8.30827L330.642 8.30126L330.474 8.45119ZM330.628 8.72906L330.419 8.81291L330.423 8.82162L330.427 8.83002L330.628 8.72906ZM330.69 9.06868H330.465V9.29419H330.69V9.06868ZM331.463 9.06868H331.689V8.84318H331.463V9.06868ZM331.587 10.1802L331.375 10.2573L331.379 10.2695L331.385 10.2811L331.587 10.1802ZM331.958 10.7359L331.788 10.8845L331.793 10.8902L331.798 10.8955L331.958 10.7359ZM332.236 11.3843H332.011V11.6098H332.236V11.3843ZM333.009 11.3843H333.234V11.1588H333.009V11.3843ZM333.813 12.928V13.1535H334.038V12.928H333.813ZM333.813 12.1562V11.9306H333.587V12.1562H333.813ZM334.586 12.1562V12.3817H334.811V12.1562H334.586ZM334.431 9.87142L334.211 9.92147L334.212 9.92372L334.431 9.87142ZM334.029 8.88344L333.839 9.00462L333.846 9.0149L333.853 9.02442L334.029 8.88344ZM333.813 8.26594H334.038V8.04043H333.813V8.26594ZM332.669 7.86457L332.828 7.70501V7.70501L332.669 7.86457ZM332.669 5.61072L332.828 5.77029V5.77029L332.669 5.61072ZM334.926 5.42547L334.819 5.62446L334.831 5.63027L334.926 5.42547ZM335.328 5.98122H335.102V6.20672H335.328V5.98122ZM336.101 5.98122H336.326V5.75571H336.101V5.98122ZM336.101 6.75308H335.875V6.97859H336.101V6.75308ZM336.873 6.75308H337.099V6.52757H336.873V6.75308ZM336.873 7.52495H336.648V7.75046H336.873V7.52495ZM337.646 8.26594V8.49145H337.872V8.26594H337.646ZM336.533 8.08069L336.426 8.27968L336.439 8.28549L336.533 8.08069ZM336.131 7.49408H336.357V7.26857H336.131V7.49408ZM335.359 7.49408H335.133V7.71958H335.359V7.49408ZM335.359 6.72221H335.584V6.4967H335.359V6.72221ZM334.586 6.72221H334.36V6.94772H334.586V6.72221ZM334.586 5.95034H334.811V5.35076L334.416 5.80173L334.586 5.95034ZM334.091 6.69133L334.284 6.80752L334.288 6.802L334.091 6.69133ZM334.091 7.74107L333.982 7.93826L333.99 7.94313L334 7.94719L334.091 7.74107ZM334.462 7.9572L334.303 8.11676L334.318 8.13253L334.337 8.14491L334.462 7.9572ZM334.555 8.29682H334.329V8.52233H334.555V8.29682ZM335.328 8.29682H335.553V8.07131H335.328V8.29682ZM335.544 9.68618L335.751 9.59569V9.59569L335.544 9.68618ZM336.162 10.705L335.983 10.8423L335.99 10.8508L336.162 10.705ZM336.688 11.5078L336.483 11.6024L336.486 11.6087L336.688 11.5078ZM336.657 13.9469L336.45 13.8563L336.446 13.8676L336.657 13.9469ZM336.101 14.4409V14.2154H335.875V14.4409H336.101ZM336.101 15.2127V15.4383H336.326V15.2127H336.101ZM335.328 15.2127V14.9872H335.102V15.2127H335.328ZM335.451 16.3551L335.239 16.4323L335.242 16.439L335.451 16.3551ZM335.822 16.9417L335.654 17.0919L335.663 17.1013L335.822 16.9417ZM336.101 17.5592H335.875V17.7847H336.101V17.5592ZM336.873 18.3002V18.5257H337.099V18.3002H336.873ZM335.791 18.4546L335.868 18.6668L335.878 18.6628L335.791 18.4546ZM335.204 18.7942L335.347 18.9689L335.352 18.964L335.204 18.7942ZM334.555 19.0721V18.8466H334.329V19.0721H334.555ZM334.555 19.8439V20.0695H334.78V19.8439H334.555ZM333.782 19.8439V19.6184H333.556V19.8439H333.782ZM319.128 26.0189H319.353V25.7934H319.128V26.0189ZM318.355 26.0189H318.129V26.2444H318.355V26.0189ZM318.355 25.247H318.58V25.0215H318.355V25.247ZM317.582 25.247H317.357V25.4725H317.582V25.247ZM317.768 23.5489L317.556 23.4708L317.553 23.4809L317.768 23.5489ZM318.355 22.9623V23.1878H318.58V22.9623H318.355ZM318.355 22.1904V21.9649H318.129V22.1904H318.355ZM319.128 22.1904V22.4159H319.353V22.1904H319.128ZM319.128 21.4186V21.193H318.902V21.4186H319.128ZM319.901 21.4186V21.6441H320.126V21.4186H319.901ZM319.901 20.6467V20.4212H319.675V20.6467H319.901ZM320.705 20.5541L320.769 20.7701L320.769 20.7701L320.705 20.5541ZM321.416 20.2762L321.51 20.4811L321.516 20.4779L321.416 20.2762ZM322.127 19.9983L322.186 20.2159L322.195 20.2135L322.204 20.2103L322.127 19.9983ZM322.992 19.8748V20.1003H323.218V19.8748H322.992ZM322.683 18.3928L322.895 18.3157L322.895 18.3148L322.683 18.3928ZM322.343 17.3122L322.124 17.3639L322.124 17.367L322.343 17.3122ZM322.961 15.9846H323.187V15.7591H322.961V15.9846ZM323.085 16.6947L322.873 16.7719L322.876 16.7786L323.085 16.6947ZM323.363 17.2813L323.166 17.391L323.17 17.3975L323.363 17.2813ZM323.734 18.3311H323.509V18.5566H323.734V18.3311ZM324.538 18.3311V18.5566H324.764V18.3311H324.538ZM324.538 17.5592V17.3337H324.313V17.5592H324.538ZM325.311 17.5592V17.7847H325.536V17.5592H325.311ZM325.156 15.7994L324.941 15.8667H324.941L325.156 15.7994ZM324.754 15.0275L324.577 15.1661L324.581 15.1719L324.586 15.1774L324.754 15.0275ZM324.538 14.4409H324.764V14.2154H324.538V14.4409ZM323.765 14.4409H323.54V14.6664H323.765V14.4409ZM323.765 13.669H323.991V13.4435H323.765V13.669ZM322.961 13.669V13.4435H322.736V13.669H322.961ZM322.219 15.2127V14.9872H321.994V15.2127H322.219ZM319.839 16.4477L319.916 16.6597L319.917 16.6594L319.839 16.4477ZM319.128 16.6639L319.073 16.445L319.069 16.4463L319.128 16.6639ZM318.355 16.0155V15.79H318.129V16.0155H318.355ZM319.128 16.0155V16.241H319.353V16.0155H319.128ZM319.128 15.2436L318.989 15.0655L318.902 15.1332V15.2436H319.128ZM319.839 14.5335L320.009 14.6822L320.013 14.677L319.839 14.5335ZM319.87 13.4838L319.799 13.6978L319.804 13.6993L319.87 13.4838ZM319.128 12.8971H319.353V12.6716H319.128V12.8971ZM318.355 12.8971H318.129V13.1227H318.355V12.8971ZM318.231 10.211L318.009 10.2497L318.009 10.2514L318.231 10.211ZM317.86 8.82169L317.648 8.89816L317.648 8.89884L317.86 8.82169ZM317.768 6.38259L317.566 6.28158L317.563 6.28798L317.768 6.38259ZM320.086 6.75308L320.3 6.8245L320.302 6.81948L320.086 6.75308ZM320.674 5.98122V6.20672H320.899V5.98122H320.674ZM320.674 5.20935V4.98384H320.448V5.20935H320.674ZM322.374 5.61072L322.247 5.79704L322.254 5.80146L322.374 5.61072ZM322.219 8.26594L322.06 8.42551L322.126 8.49145H322.219V8.26594ZM321.508 7.7102L321.373 7.89084L321.381 7.89611L321.508 7.7102ZM320.643 7.52495H320.417V7.75046H320.643V7.52495ZM321.416 8.26594V8.49145H321.641V8.26594H321.416ZM320.643 8.26594V8.04043H320.417V8.26594H320.643ZM320.643 9.03781V9.26332H320.868V9.03781H320.643ZM319.87 9.03781V8.8123H319.644V9.03781H319.87ZM319.87 9.80968V10.0352H320.095V9.80968H319.87ZM319.097 9.80968V9.58417H318.732L318.895 9.91063L319.097 9.80968ZM319.839 10.9212L319.657 11.0544L319.659 11.0577L319.839 10.9212ZM320.859 11.3534L321.077 11.4128L320.859 11.3534ZM321.045 10.8285L320.849 10.7164L320.843 10.7276L321.045 10.8285ZM321.446 10.6124V10.8379H321.672V10.6124H321.446ZM321.446 9.84055V9.61504H321.221V9.84055H321.446ZM322.188 9.84055H322.414V9.61504H322.188V9.84055ZM321.972 10.952L321.773 10.8448L321.767 10.8574L321.972 10.952ZM321.416 11.3534V11.1279H320.964L321.235 11.4888L321.416 11.3534ZM322.219 12.2796L322.055 12.4347L322.06 12.4392L322.219 12.2796ZM323.147 12.6193L322.951 12.5073L322.945 12.5185L322.94 12.5303L323.147 12.6193ZM323.394 12.2796L323.554 12.4392L323.562 12.4304L323.57 12.4206L323.394 12.2796ZM323.982 13.3294L323.799 13.4624L323.807 13.4723L323.982 13.3294ZM324.754 13.8543L324.855 13.6525L324.845 13.6472L324.834 13.6431L324.754 13.8543ZM325.156 14.1321L324.976 14.2675L324.995 14.2933L325.021 14.3126L325.156 14.1321ZM325.28 14.4718H325.055V14.6973H325.28V14.4718ZM326.053 14.4718H326.278V14.2462H326.053V14.4718ZM325.527 17.8062L325.736 17.8927L325.736 17.8909L325.527 17.8062ZM323.734 19.0721V18.8466H323.509V19.0721H323.734ZM323.858 20.1836L323.644 20.255L323.648 20.2662L323.653 20.277L323.858 20.1836ZM324.291 20.8319L324.471 20.6965L324.465 20.6885L324.458 20.681L324.291 20.8319ZM324.445 21.0789L324.244 21.1799L324.253 21.1981L324.265 21.2144L324.445 21.0789ZM323.394 21.2024L323.287 21.4014L323.3 21.4072L323.394 21.2024ZM322.992 20.6158H323.218V20.3903H322.992V20.6158ZM322.188 20.6158V20.3903H321.963V20.6158H322.188ZM322.188 21.3877V21.6132H322.414V21.3877H322.188ZM321.106 21.5112L321.023 21.3018H321.023L321.106 21.5112ZM320.55 21.8817L320.709 22.0412L320.55 21.8817ZM320.272 22.0978L320.372 22.2995L320.372 22.2995L320.272 22.0978ZM319.87 22.1595V21.934H319.644V22.1595H319.87ZM319.87 22.9314L320.037 23.0824L320.095 23.018V22.9314H319.87ZM319.221 23.7959L319.405 23.9261L319.408 23.9211L319.221 23.7959ZM318.973 24.8148L318.786 24.94L318.791 24.9481L318.797 24.9558L318.973 24.8148ZM319.097 25.2779H318.871V25.5034H319.097V25.2779ZM319.87 25.2779H320.095V25.0524H319.87V25.2779ZM319.87 26.0498H319.644V26.2753H319.87V26.0498ZM321.57 25.5558L321.72 25.7247L321.73 25.7153L321.57 25.5558ZM321.848 25.3705L321.932 25.5799L321.949 25.5732L321.964 25.5639L321.848 25.3705ZM322.219 25.2779V25.5034H322.445V25.2779H322.219ZM322.096 24.1973L322.308 24.1201V24.1201L322.096 24.1973ZM321.725 23.5798L321.893 23.4296L321.884 23.4202L321.725 23.5798ZM321.446 22.9623V22.7368H321.221V22.9623H321.446ZM322.559 23.3637L322.4 23.5233L322.407 23.5295L322.559 23.3637ZM322.961 24.4751L323.147 24.6038L323.187 24.5457V24.4751H322.961ZM319.901 19.8439V20.0695H320.126V19.8439H319.901ZM319.128 19.8439H318.902V20.0695H319.128V19.8439ZM318.355 18.3002H318.58V18.0747H318.355V18.3002ZM317.582 18.3002H317.357V18.5257H317.582V18.3002ZM317.768 17.1887L317.566 17.0877L317.563 17.0941L317.768 17.1887ZM318.479 17.8062L318.267 17.8834L318.269 17.8901L318.479 17.8062ZM318.85 18.4237L318.674 18.5647L318.675 18.5666L318.85 18.4237ZM318.355 19.0721H318.129V19.2976H318.355V19.0721ZM319.901 18.3002V18.0747H319.675V18.3002H319.901ZM320.674 19.0721V19.2976H320.899V19.0721H320.674ZM320.674 17.5592V17.3337H320.448V17.5592H320.674ZM321.416 17.5592H321.641V17.3337H321.416V17.5592ZM321.416 18.3002V18.5257H321.641V18.3002H321.416ZM328.372 26.7907V27.0163H328.597V26.7907H328.372ZM326.671 26.5746L326.749 26.3627L326.739 26.3596L326.671 26.5746ZM326.084 26.0189H326.309V25.7934H326.084V26.0189ZM325.311 26.0189H325.085V26.2444H325.311V26.0189ZM325.187 24.1973L324.965 24.2377L324.966 24.2395L325.187 24.1973ZM324.816 22.8388L324.602 22.9102L324.604 22.9159L324.816 22.8388ZM325.28 21.3877H325.506V21.1622H325.28V21.3877ZM326.084 22.9623V23.1878H326.309V22.9623H326.084ZM326.084 22.1904V21.9649H325.858V22.1904H326.084ZM326.857 22.1904V22.4159H327.082V22.1904H326.857ZM326.857 21.4186V21.193H326.631V21.4186H326.857ZM327.63 21.4186V21.6441H327.855V21.4186H327.63ZM327.63 20.6467V20.4212H327.404V20.6467H327.63ZM328.403 20.6467V20.8722H328.628V20.6467H328.403ZM328.403 19.8748V19.6493H328.177V19.8748H328.403ZM329.175 19.8748V20.1003H329.401V19.8748H329.175ZM329.175 19.0721H329.401V18.8466H329.175V19.0721ZM328.403 19.0721H328.177V19.2976H328.403V19.0721ZM328.403 18.3002H328.628V18.0747H328.403V18.3002ZM327.63 18.3002H327.404V18.5257H327.63V18.3002ZM327.815 16.6021L327.603 16.524L327.6 16.5341L327.815 16.6021ZM328.619 17.2505L328.402 17.3114L328.402 17.3137L328.619 17.2505ZM329.175 18.5472L328.983 18.665L328.988 18.6724L329.175 18.5472ZM329.948 19.103V19.3285H330.174V19.103H329.948ZM329.948 18.3311V18.1056H329.723V18.3311H329.948ZM330.721 18.3311V18.5566H330.947V18.3311H330.721ZM330.721 17.5592V17.3337H330.496V17.5592H330.721ZM330.721 19.0721V18.8466H330.496V19.0721H330.721ZM329.917 19.8439V19.6184H329.692V19.8439H329.917ZM329.917 20.6158V20.8413H330.143V20.6158H329.917ZM329.145 20.6158V20.3903H328.919V20.6158H329.145ZM329.145 21.3877V21.6132H329.37V21.3877H329.145ZM328.372 21.3877V21.1622H328.146V21.3877H328.372ZM328.372 22.1595V22.3851H328.597V22.1595H328.372ZM327.599 22.1595V21.934H327.373V22.1595H327.599ZM327.599 22.9314V23.1569H327.824V22.9314H327.599ZM326.826 22.9314V22.7059H326.6V22.9314H326.826ZM326.826 23.7033V23.9288H327.051V23.7033H326.826ZM326.053 23.7033V23.4778H325.827V23.7033H326.053ZM326.177 24.7839L326.389 24.7067L326.177 24.7839ZM326.548 25.4014L326.379 25.5516L326.388 25.5609L326.548 25.4014ZM326.733 25.6793L326.524 25.7631L326.53 25.7799L326.54 25.7954L326.733 25.6793ZM326.826 26.0498H326.6V26.2753H326.826V26.0498ZM327.63 26.0498V26.2753H327.855V26.0498H327.63ZM327.63 25.2779V25.0524H327.404V25.2779H327.63ZM328.372 25.2779V25.5034H328.597V25.2779H328.372ZM329.145 24.4751H329.37V24.2496H329.145V24.4751ZM328.928 25.6175L328.726 25.5165L328.723 25.5229L328.928 25.6175ZM328.372 26.0189V25.7934H328.146V26.0189H328.372ZM327.63 23.7342V23.5086H327.404V23.7342H327.63ZM328.372 23.7342H328.597V23.5086H328.372V23.7342ZM327.63 24.4751H327.404V24.7007H327.63V24.4751ZM330.721 26.7907H330.496V27.0163H330.721V26.7907ZM330.907 25.6793L330.708 25.572L330.702 25.5847L330.907 25.6793ZM331.494 25.2779V25.5034H331.72V25.2779H331.494ZM331.494 24.506V24.2805H331.269V24.506H331.494ZM332.267 24.506V24.7315H332.493V24.506H332.267ZM331.989 22.4065L331.777 22.4838L331.78 22.492L331.989 22.4065ZM331.278 21.1716L331.103 21.3145L331.105 21.316L331.278 21.1716ZM330.845 20.5541L330.639 20.6458L330.643 20.6549L330.648 20.6637L330.845 20.5541ZM331.463 19.8439H331.689V19.6184H331.463V19.8439ZM331.463 20.6467H331.238V20.8722H331.463V20.6467ZM332.236 20.6467H332.462V20.4212H332.236V20.6467ZM332.236 21.4186H332.011V21.6441H332.236V21.4186ZM333.009 21.4186H333.234V21.193H333.009V21.4186ZM333.009 21.9125L333.22 21.9918L333.234 21.9535V21.9125H333.009ZM332.854 22.8697L333.079 22.8901L333.079 22.8892L332.854 22.8697ZM333.009 25.2779H333.234V25.0524H333.009V25.2779ZM333.009 26.0498H332.783V26.2753H333.009V26.0498ZM334.215 25.6484L334.043 25.5026L334.215 25.6484ZM334.74 24.5369L334.523 24.4748L334.522 24.4799L334.74 24.5369ZM334.957 23.9194L334.769 23.7942L334.761 23.8059L334.755 23.8184L334.957 23.9194ZM335.359 23.7342V23.9597H335.584V23.7342H335.359ZM335.049 21.8508L334.858 21.9705L334.862 21.976L335.049 21.8508ZM334.215 21.1407L334.126 21.348L334.129 21.3492L334.215 21.1407ZM333.875 20.9554L333.715 21.115L333.727 21.1263L333.739 21.1359L333.875 20.9554ZM335.482 21.1407L335.337 21.3133L335.341 21.3169L335.482 21.1407ZM335.884 23.9811L335.677 23.8905L335.673 23.9019L335.884 23.9811ZM335.328 24.4751V24.2496H335.102V24.4751H335.328ZM335.328 25.2779H335.102V25.5034H335.328V25.2779ZM336.41 25.1544L336.333 24.9424H336.333L336.41 25.1544ZM337.028 24.7839L337.178 24.9528L337.187 24.9435L337.028 24.7839ZM337.677 24.506V24.7315H337.903V24.506H337.677ZM337.523 22.777L337.306 22.8408L337.307 22.8444L337.523 22.777ZM337.121 21.9743L336.943 22.1129L336.947 22.1187L336.952 22.1242L337.121 21.9743ZM337.646 20.6467H337.872V20.4212H337.646V20.6467ZM337.646 21.4186H337.421V21.6441H337.646V21.4186ZM338.419 21.4186H338.645V21.193H338.419V21.4186ZM338.265 23.8268L338.485 23.8728L338.486 23.8711L338.265 23.8268ZM337.863 25L337.667 24.888L337.664 24.893L337.863 25ZM337.646 26.0189V26.2444H337.872V26.0189H337.646ZM335.637 26.1733L335.589 25.9529L335.637 26.1733ZM334.338 26.5746L334.424 26.7832L334.426 26.7825L334.338 26.5746ZM332.267 26.0189H332.493V25.7934H332.267V26.0189ZM331.463 26.0189V25.7934H331.238V26.0189H331.463ZM331.463 26.7907V27.0163H331.689V26.7907H331.463ZM324.507 11.3534H324.733V11.1279H324.507V11.3534ZM324.507 12.1253V12.3508H324.733V12.1253H324.507ZM322.992 10.5815V10.356H322.767V10.5815H322.992ZM322.992 11.3534H322.767V11.5789H322.992V11.3534ZM318.355 5.20935V4.98384H318.129V5.20935H318.355ZM319.097 5.20935H319.322V4.98384H319.097V5.20935ZM319.097 5.95034V6.17585H319.322V5.95034H319.097ZM328.681 14.3174L328.479 14.2164L328.477 14.2207L328.681 14.3174ZM329.485 14.7496L329.627 14.9243V14.9242L329.485 14.7496ZM328.99 15.4906L329.196 15.5823L329.2 15.5723L329.204 15.562L328.99 15.4906ZM328.743 15.892L328.583 15.7324L328.572 15.7437L328.562 15.7566L328.743 15.892ZM337.059 16.4169L336.86 16.3096L336.854 16.3223L337.059 16.4169ZM337.646 16.0155H337.872V15.79H337.646V16.0155ZM337.43 17.1578L337.228 17.0568L337.225 17.0632L337.43 17.1578ZM337.832 6.38259L337.633 6.27536L337.627 6.28798L337.832 6.38259ZM338.419 5.98122H338.645V5.75571H338.419V5.98122ZM338.203 7.12358L338.001 7.02257L337.998 7.02897L338.203 7.12358ZM333.234 20.6467C333.234 20.1917 333.305 19.8636 333.424 19.6422L333.027 19.4282C332.858 19.742 332.783 20.1548 332.783 20.6467H333.234ZM333.427 19.6362C333.547 19.3971 333.678 19.3285 333.813 19.3285V18.8774C333.453 18.8774 333.193 19.097 333.024 19.4342L333.427 19.6362ZM334.038 19.103V18.3311H333.587V19.103H334.038ZM333.813 18.5566C334.34 18.5566 334.77 18.4893 335.076 18.3305C335.232 18.2494 335.362 18.1414 335.452 18.0014C335.542 17.8603 335.584 17.6999 335.584 17.5283H335.133C335.133 17.6244 335.11 17.6981 335.072 17.7577C335.033 17.8184 334.97 17.8776 334.868 17.9303C334.659 18.039 334.316 18.1056 333.813 18.1056V18.5566ZM335.359 17.3028H334.586V17.7539H335.359V17.3028ZM334.811 17.5283C334.811 16.7308 334.863 16.1458 334.959 15.7615L334.522 15.652C334.412 16.091 334.36 16.7204 334.36 17.5283H334.811ZM334.96 15.759C335.06 15.3379 335.178 15.0084 335.31 14.764L334.913 14.55C334.756 14.8408 334.627 15.211 334.521 15.6544L334.96 15.759ZM335.307 14.769C335.392 14.6209 335.458 14.4913 335.505 14.3818C335.548 14.2795 335.584 14.1697 335.584 14.0704H335.133C335.133 14.0684 335.133 14.0784 335.126 14.1049C335.119 14.1301 335.107 14.1637 335.089 14.2066C335.053 14.2927 334.996 14.4049 334.916 14.545L335.307 14.769ZM335.584 14.0704V13.6999H335.133V14.0704H335.584ZM335.359 13.9254H336.131V13.4744H335.359V13.9254ZM336.357 13.6999C336.357 12.9109 336.29 12.2941 336.144 11.8669C335.999 11.443 335.742 11.1279 335.328 11.1279V11.5789C335.449 11.5789 335.594 11.6549 335.717 12.0131C335.839 12.3682 335.906 12.9245 335.906 13.6999H336.357ZM335.102 11.3534C335.102 11.8309 335.032 12.1685 334.913 12.3887L335.31 12.6028C335.48 12.2879 335.553 11.8639 335.553 11.3534H335.102ZM334.907 12.4012C334.856 12.5097 334.801 12.5753 334.747 12.6139C334.696 12.6508 334.635 12.6716 334.555 12.6716V13.1227C334.722 13.1227 334.877 13.0766 335.011 12.9797C335.143 12.8845 335.242 12.7494 335.316 12.5904L334.907 12.4012ZM334.329 12.8971V13.669H334.78V12.8971H334.329ZM334.555 13.4435C333.939 13.4435 333.443 13.5788 333.17 13.9328L333.528 14.208C333.667 14.0268 333.975 13.8945 334.555 13.8945V13.4435ZM333.176 13.9259C332.936 14.213 332.781 14.6041 332.694 15.0797L333.138 15.1605C333.216 14.7305 333.35 14.4218 333.522 14.2149L333.176 13.9259ZM332.697 15.0654C332.615 15.3935 332.54 15.586 332.481 15.6742L332.856 15.9246C332.963 15.7657 333.052 15.5053 333.135 15.1749L332.697 15.0654ZM332.467 15.6984C332.464 15.7043 332.436 15.7591 332.236 15.7591V16.2101C332.489 16.2101 332.75 16.1414 332.871 15.9003L332.467 15.6984ZM332.011 15.9846C332.011 16.4989 331.949 16.8524 331.847 17.0694C331.797 17.175 331.742 17.239 331.688 17.2767C331.637 17.313 331.575 17.3337 331.494 17.3337V17.7847C331.66 17.7847 331.815 17.7399 331.949 17.6449C332.081 17.5514 332.181 17.4186 332.255 17.2617C332.4 16.9538 332.462 16.52 332.462 15.9846H332.011ZM331.72 17.5592C331.72 16.6761 331.669 16.0366 331.555 15.6703L331.124 15.805C331.216 16.0973 331.269 16.6722 331.269 17.5592H331.72ZM331.555 15.6703C331.446 15.3216 331.297 15.0369 331.097 14.8371L330.778 15.1562C330.908 15.2857 331.027 15.495 331.124 15.805L331.555 15.6703ZM331.097 14.8371C330.963 14.7032 330.916 14.5826 330.916 14.4718H330.465C330.465 14.7314 330.583 14.9607 330.778 15.1562L331.097 14.8371ZM330.69 14.6973H331.463V14.2462H330.69V14.6973ZM331.238 14.4718V15.2436H331.689V14.4718H331.238ZM331.463 15.4691H332.267V15.0181H331.463V15.4691ZM332.493 15.2436C332.493 14.4559 332.451 13.8229 332.365 13.3507L331.921 13.4315C332 13.865 332.041 14.467 332.041 15.2436H332.493ZM332.365 13.3507C332.281 12.8875 332.155 12.3847 331.988 11.8428L331.557 11.9756C331.72 12.5039 331.841 12.9891 331.921 13.4315L332.365 13.3507ZM331.984 11.8327C331.804 11.3321 331.72 10.9167 331.72 10.5815H331.269C331.269 10.9874 331.37 11.4571 331.56 11.9856L331.984 11.8327ZM331.494 10.356C331.271 10.356 331.145 10.3005 331.074 10.229C331.002 10.1576 330.947 10.0321 330.947 9.80968H330.496C330.496 10.1018 330.569 10.3623 330.755 10.5481C330.941 10.7339 331.202 10.8071 331.494 10.8071V10.356ZM330.721 9.58417H329.948V10.0352H330.721V9.58417ZM330.174 9.80968C330.174 9.29177 330.133 8.88716 330.037 8.62103L329.613 8.77534C329.681 8.96205 329.723 9.29843 329.723 9.80968H330.174ZM330.037 8.62103C329.942 8.36254 329.798 8.1442 329.602 7.97263L329.305 8.31225C329.439 8.42885 329.542 8.581 329.613 8.77534L330.037 8.62103ZM329.613 7.98288C329.518 7.88834 329.465 7.81543 329.439 7.76361L329.036 7.96553C329.092 8.07838 329.183 8.19071 329.294 8.30201L329.613 7.98288ZM329.439 7.76361C329.421 7.72844 329.401 7.6472 329.401 7.49408H328.95C328.95 7.67028 328.971 7.83604 329.036 7.96553L329.439 7.76361ZM329.175 7.26857H328.372V7.71958H329.175V7.26857ZM328.504 7.31162C328.255 7.13088 327.833 6.91679 327.255 6.66926L327.077 7.0839C327.653 7.33037 328.035 7.52794 328.239 7.67654L328.504 7.31162ZM327.264 6.67335C326.981 6.53737 326.735 6.43298 326.528 6.36216C326.325 6.29272 326.142 6.2497 325.991 6.2497V6.70072C326.067 6.70072 326.194 6.7246 326.382 6.78895C326.566 6.85192 326.795 6.94822 327.068 7.07982L327.264 6.67335ZM325.991 6.2497C325.913 6.2497 325.841 6.28286 325.798 6.30433C325.745 6.33082 325.684 6.36737 325.619 6.411L325.869 6.78642C325.927 6.74771 325.97 6.72252 325.999 6.70784C326.014 6.70053 326.022 6.69761 326.024 6.69689C326.028 6.69549 326.015 6.70072 325.991 6.70072V6.2497ZM325.603 6.42253C325.557 6.45935 325.462 6.4967 325.28 6.4967V6.94772C325.51 6.94772 325.725 6.90274 325.885 6.77489L325.603 6.42253ZM325.055 6.72221V7.49408H325.506V6.72221H325.055ZM325.179 7.69583C325.266 7.73905 325.393 7.77727 325.544 7.81365C325.7 7.85125 325.899 7.89079 326.138 7.93238L326.215 7.48802C325.981 7.44727 325.793 7.40963 325.65 7.37519C325.502 7.33952 325.418 7.31085 325.381 7.29232L325.179 7.69583ZM326.14 7.93265C326.64 8.01593 327.056 8.05921 327.382 8.05921V7.60819C327.091 7.60819 326.703 7.56913 326.214 7.48775L326.14 7.93265ZM327.382 8.05921C327.64 8.05921 327.874 8.00076 328.052 7.85266L327.764 7.50599C327.694 7.56372 327.578 7.60819 327.382 7.60819V8.05921ZM328.067 7.83889C328.146 7.76041 328.242 7.71958 328.372 7.71958V7.26857C328.13 7.26857 327.917 7.35124 327.749 7.51976L328.067 7.83889ZM328.201 7.3461C327.518 8.13215 327.013 8.79197 326.694 9.32304L327.081 9.55532C327.38 9.05724 327.865 8.42031 328.542 7.64205L328.201 7.3461ZM326.694 9.32304C326.368 9.86677 326.198 10.421 326.198 10.9829H326.649C326.649 10.5156 326.789 10.0407 327.081 9.55532L326.694 9.32304ZM326.198 10.9829C326.198 11.2531 326.273 11.5026 326.422 11.7256L326.797 11.4752C326.698 11.3277 326.649 11.1655 326.649 10.9829H326.198ZM326.44 11.749C326.551 11.8754 326.6 12.0087 326.6 12.1562H327.051C327.051 11.892 326.957 11.6547 326.779 11.4518L326.44 11.749ZM326.976 12.3248C327.183 12.141 327.412 11.8546 327.663 11.4786L327.288 11.2282C327.044 11.5932 326.84 11.842 326.676 11.9875L326.976 12.3248ZM327.658 11.4856C327.796 11.2942 327.905 11.1202 327.98 10.9651C328.053 10.8134 328.102 10.6617 328.102 10.5198H327.651C327.651 10.5631 327.634 10.643 327.573 10.7692C327.514 10.8919 327.422 11.0422 327.292 11.2213L327.658 11.4856ZM328.102 10.5198C328.102 10.4022 328.061 10.2921 327.974 10.2059L327.656 10.525C327.656 10.5253 327.656 10.5248 327.655 10.5234C327.654 10.5221 327.653 10.5204 327.652 10.5187C327.651 10.5149 327.651 10.5144 327.651 10.5198H328.102ZM327.974 10.2059C327.946 10.1776 327.914 10.1384 327.879 10.0858L327.504 10.3363C327.551 10.4072 327.602 10.4709 327.656 10.525L327.974 10.2059ZM327.893 10.1101C327.876 10.0749 327.855 9.99368 327.855 9.84055H327.404C327.404 10.0168 327.425 10.1825 327.49 10.312L327.893 10.1101ZM327.63 10.0661H328.372V9.61504H327.63V10.0661ZM328.146 9.84055V10.6124H328.597V9.84055H328.146ZM328.372 10.8379H329.145V10.3869H328.372V10.8379ZM328.919 10.6124C328.919 11.0674 328.849 11.3955 328.73 11.6169L329.127 11.8309C329.296 11.5171 329.37 11.1043 329.37 10.6124H328.919ZM328.723 11.6293C328.673 11.7378 328.618 11.8035 328.564 11.842C328.513 11.8789 328.452 11.8998 328.372 11.8998V12.3508C328.539 12.3508 328.694 12.3047 328.828 12.2078C328.96 12.1126 329.059 11.9776 329.133 11.8185L328.723 11.6293ZM328.146 12.1253V12.8971H328.597V12.1253H328.146ZM328.372 12.6716C327.637 12.6716 327.098 12.6099 326.739 12.4968L326.603 12.927C327.028 13.0608 327.622 13.1227 328.372 13.1227V12.6716ZM326.749 12.5003C326.378 12.3637 326.309 12.2214 326.309 12.1253H325.858C325.858 12.5231 326.181 12.7719 326.593 12.9235L326.749 12.5003ZM326.084 11.8998H325.311V12.3508H326.084V11.8998ZM325.536 12.1253C325.536 11.375 325.464 10.7775 325.306 10.3491L324.883 10.5052C325.013 10.859 325.085 11.3935 325.085 12.1253H325.536ZM325.311 10.3623C325.243 10.1384 325.15 9.94697 325.018 9.80862C324.881 9.66397 324.707 9.58417 324.507 9.58417V10.0352C324.575 10.0352 324.633 10.0583 324.692 10.1195C324.756 10.187 324.822 10.3042 324.879 10.492L325.311 10.3623ZM324.282 9.80968V10.5815H324.733V9.80968H324.282ZM324.507 10.356H323.734V10.8071H324.507V10.356ZM323.96 10.5815C323.96 10.2792 324.037 9.76528 324.202 9.02504L323.761 8.92708C323.596 9.66882 323.509 10.2252 323.509 10.5815H323.96ZM324.201 9.02943C324.382 8.28604 324.642 7.61631 324.982 7.01875L324.589 6.79617C324.228 7.43359 323.952 8.14293 323.762 8.92269L324.201 9.02943ZM324.982 7.01875C325.309 6.44175 325.679 6.20672 326.084 6.20672V5.75571C325.458 5.75571 324.963 6.13817 324.589 6.79617L324.982 7.01875ZM326.309 5.98122C326.309 5.90114 326.33 5.84021 326.367 5.78918C326.406 5.7358 326.471 5.6804 326.58 5.63027L326.391 5.22067C326.232 5.29405 326.097 5.39302 326.002 5.52488C325.905 5.6591 325.858 5.8143 325.858 5.98122H326.309ZM326.593 5.62409C326.813 5.50541 327.151 5.43486 327.63 5.43486V4.98384C327.119 4.98384 326.694 5.05737 326.379 5.22686L326.593 5.62409ZM327.63 5.43486C328.085 5.43486 328.414 5.50484 328.636 5.62409L328.849 5.22686C328.535 5.05795 328.122 4.98384 327.63 4.98384V5.43486ZM328.648 5.63027C328.757 5.6804 328.823 5.7358 328.861 5.78918C328.898 5.84021 328.919 5.90114 328.919 5.98122H329.37C329.37 5.8143 329.324 5.6591 329.227 5.52488C329.131 5.39302 328.996 5.29405 328.837 5.22067L328.648 5.63027ZM329.145 6.20672H329.917V5.75571H329.145V6.20672ZM329.692 5.98122C329.692 6.76613 329.743 7.35994 329.856 7.74303L330.288 7.61562C330.195 7.29888 330.143 6.76062 330.143 5.98122H329.692ZM329.857 7.74667C329.966 8.09535 330.113 8.38455 330.305 8.60112L330.642 8.30126C330.505 8.14734 330.384 7.92196 330.287 7.61198L329.857 7.74667ZM330.294 8.58661C330.343 8.65194 330.385 8.72698 330.419 8.81291L330.838 8.64521C330.79 8.52531 330.729 8.41511 330.654 8.31577L330.294 8.58661ZM330.427 8.83002C330.446 8.86823 330.465 8.94183 330.465 9.06868H330.916C330.916 8.90738 330.893 8.75456 330.83 8.6281L330.427 8.83002ZM330.69 9.29419H331.463V8.84318H330.69V9.29419ZM331.238 9.06868C331.238 9.58659 331.278 9.9912 331.375 10.2573L331.799 10.103C331.731 9.91631 331.689 9.57993 331.689 9.06868H331.238ZM331.385 10.2811C331.496 10.5033 331.631 10.7047 331.788 10.8845L332.127 10.5873C331.996 10.4378 331.883 10.2687 331.789 10.0792L331.385 10.2811ZM331.798 10.8955C331.893 10.99 331.947 11.0629 331.973 11.1147L332.376 10.9128C332.319 10.8 332.229 10.6876 332.117 10.5764L331.798 10.8955ZM331.973 11.1147C331.99 11.1499 332.011 11.2312 332.011 11.3843H332.462C332.462 11.2081 332.441 11.0423 332.376 10.9128L331.973 11.1147ZM332.236 11.6098H333.009V11.1588H332.236V11.6098ZM332.783 11.3843C332.783 11.9111 332.851 12.3407 333.01 12.6462C333.091 12.8023 333.199 12.9317 333.34 13.0215C333.481 13.1118 333.641 13.1535 333.813 13.1535V12.7025C333.716 12.7025 333.643 12.6799 333.583 12.6416C333.522 12.6027 333.463 12.5391 333.41 12.4379C333.301 12.2289 333.234 11.8866 333.234 11.3843H332.783ZM334.038 12.928V12.1562H333.587V12.928H334.038ZM333.813 12.3817H334.586V11.9306H333.813V12.3817ZM334.811 12.1562C334.811 11.0658 334.76 10.28 334.65 9.81913L334.212 9.92372C334.308 10.3273 334.36 11.0647 334.36 12.1562H334.811ZM334.651 9.82138C334.545 9.35694 334.402 8.98801 334.205 8.74245L333.853 9.02442C333.986 9.19053 334.111 9.48026 334.211 9.92147L334.651 9.82138ZM334.219 8.76225C334.088 8.55665 334.038 8.39306 334.038 8.26594H333.587C333.587 8.50932 333.681 8.75739 333.839 9.00462L334.219 8.76225ZM333.813 8.04043C333.359 8.04043 333.042 7.91858 332.828 7.70501L332.51 8.02414C332.832 8.34572 333.277 8.49145 333.813 8.49145V8.04043ZM332.828 7.70501C332.614 7.49148 332.493 7.17533 332.493 6.72221H332.041C332.041 7.25708 332.187 7.7025 332.51 8.02414L332.828 7.70501ZM332.493 6.72221C332.493 6.29283 332.613 5.98556 332.828 5.77029L332.51 5.45116C332.189 5.77104 332.041 6.20476 332.041 6.72221H332.493ZM332.828 5.77029C333.042 5.55671 333.359 5.43486 333.813 5.43486V4.98384C333.277 4.98384 332.832 5.12957 332.51 5.45116L332.828 5.77029ZM333.813 5.43486C334.268 5.43486 334.597 5.50484 334.819 5.62409L335.033 5.22686C334.718 5.05795 334.305 4.98384 333.813 4.98384V5.43486ZM334.831 5.63027C334.94 5.6804 335.006 5.7358 335.044 5.78918C335.081 5.84021 335.102 5.90114 335.102 5.98122H335.553C335.553 5.8143 335.507 5.6591 335.41 5.52488C335.315 5.39302 335.179 5.29405 335.02 5.22067L334.831 5.63027ZM335.328 6.20672H336.101V5.75571H335.328V6.20672ZM335.875 5.98122V6.75308H336.326V5.98122H335.875ZM336.101 6.97859H336.873V6.52757H336.101V6.97859ZM336.648 6.75308V7.52495H337.099V6.75308H336.648ZM336.873 7.75046H337.646V7.29944H336.873V7.75046ZM337.421 7.52495V8.26594H337.872V7.52495H337.421ZM337.646 8.04043C337.187 8.04043 336.854 7.97994 336.628 7.87589L336.439 8.28549C336.749 8.42844 337.157 8.49145 337.646 8.49145V8.04043ZM336.64 7.88208C336.425 7.76651 336.357 7.6375 336.357 7.49408H335.906C335.906 7.84465 336.106 8.10672 336.427 8.27931L336.64 7.88208ZM336.131 7.26857H335.359V7.71958H336.131V7.26857ZM335.584 7.49408V6.72221H335.133V7.49408H335.584ZM335.359 6.4967H334.586V6.94772H335.359V6.4967ZM334.811 6.72221V5.95034H334.36V6.72221H334.811ZM334.416 5.80173C334.257 5.98352 334.083 6.24603 333.895 6.58066L334.288 6.802C334.47 6.47797 334.626 6.24649 334.755 6.09895L334.416 5.80173ZM333.898 6.5752C333.711 6.88643 333.587 7.16976 333.587 7.40145H334.038C334.038 7.30381 334.1 7.11373 334.284 6.80747L333.898 6.5752ZM333.587 7.40145C333.587 7.65347 333.778 7.82502 333.982 7.93826L334.2 7.54388C334.122 7.50056 334.079 7.46309 334.057 7.43607C334.037 7.41199 334.038 7.40185 334.038 7.40145H333.587ZM334 7.94719C334.184 8.02926 334.273 8.08732 334.303 8.11676L334.621 7.79763C334.527 7.70358 334.369 7.61756 334.183 7.53496L334 7.94719ZM334.337 8.14491C334.303 8.12205 334.305 8.09942 334.314 8.13239C334.322 8.16181 334.329 8.21412 334.329 8.29682H334.78C334.78 8.19427 334.772 8.09734 334.749 8.01357C334.727 7.93332 334.683 7.83351 334.587 7.76948L334.337 8.14491ZM334.555 8.52233H335.328V8.07131H334.555V8.52233ZM335.102 8.29682C335.102 8.90695 335.175 9.40601 335.338 9.77667L335.751 9.59569C335.624 9.30768 335.553 8.8805 335.553 8.29682H335.102ZM335.338 9.77667C335.49 10.1258 335.707 10.4809 335.983 10.8421L336.341 10.5679C336.082 10.2293 335.886 9.90521 335.751 9.59569L335.338 9.77667ZM335.99 10.8508C336.206 11.1057 336.37 11.3564 336.483 11.6024L336.893 11.4132C336.759 11.124 336.572 10.8395 336.334 10.5593L335.99 10.8508ZM336.486 11.6087C336.588 11.8116 336.648 12.1116 336.648 12.5266H337.099C337.099 12.0772 337.035 11.6979 336.89 11.4068L336.486 11.6087ZM336.648 12.5266C336.648 13.1322 336.576 13.5691 336.45 13.8564L336.864 14.0374C337.026 13.666 337.099 13.1561 337.099 12.5266H336.648ZM336.446 13.8676C336.392 14.0114 336.332 14.0988 336.275 14.1487C336.224 14.1945 336.169 14.2154 336.101 14.2154V14.6664C336.28 14.6664 336.441 14.6049 336.575 14.486C336.704 14.3713 336.798 14.2117 336.868 14.0262L336.446 13.8676ZM335.875 14.4409V15.2127H336.326V14.4409H335.875ZM336.101 14.9872H335.328V15.4383H336.101V14.9872ZM335.102 15.2127C335.102 15.75 335.142 16.1656 335.239 16.4323L335.663 16.278C335.595 16.0918 335.553 15.7458 335.553 15.2127H335.102ZM335.242 16.439C335.335 16.6717 335.474 16.8892 335.654 17.0917L335.991 16.7918C335.841 16.6237 335.732 16.4502 335.661 16.2713L335.242 16.439ZM335.663 17.1013C335.758 17.1958 335.811 17.2687 335.837 17.3206L336.24 17.1186C336.184 17.0058 336.093 16.8935 335.982 16.7822L335.663 17.1013ZM335.837 17.3206C335.856 17.3588 335.875 17.4324 335.875 17.5592H336.326C336.326 17.3979 336.304 17.2451 336.24 17.1186L335.837 17.3206ZM336.101 17.7847H336.873V17.3337H336.101V17.7847ZM336.648 17.5592V18.3002H337.099V17.5592H336.648ZM336.873 18.0747C336.389 18.0747 335.993 18.1264 335.705 18.2464L335.878 18.6628C336.084 18.5769 336.41 18.5257 336.873 18.5257V18.0747ZM335.714 18.2426C335.464 18.3335 335.244 18.4602 335.056 18.6244L335.352 18.964C335.494 18.8401 335.665 18.7403 335.868 18.6665L335.714 18.2426ZM335.061 18.6196C334.858 18.7855 334.691 18.8466 334.555 18.8466V19.2976C334.831 19.2976 335.096 19.1734 335.347 18.9688L335.061 18.6196ZM334.329 19.0721V19.8439H334.78V19.0721H334.329ZM334.555 19.6184H333.782V20.0695H334.555V19.6184ZM333.556 19.8439V20.6467H334.007V19.8439H333.556ZM333.782 20.4212H333.009V20.8722H333.782V20.4212ZM320.272 26.5652C319.909 26.5652 319.676 26.5027 319.54 26.4108C319.42 26.3296 319.353 26.2116 319.353 26.0189H318.902C318.902 26.3407 319.027 26.6086 319.288 26.7847C319.533 26.9501 319.872 27.0163 320.272 27.0163V26.5652ZM319.128 25.7934H318.355V26.2444H319.128V25.7934ZM318.58 26.0189V25.247H318.129V26.0189H318.58ZM318.355 25.0215H317.582V25.4725H318.355V25.0215ZM317.808 25.247C317.808 24.5137 317.869 23.975 317.983 23.6169L317.553 23.4809C317.418 23.905 317.357 24.4984 317.357 25.247H317.808ZM317.979 23.627C318.116 23.2566 318.258 23.1878 318.355 23.1878V22.7368C317.957 22.7368 317.708 23.059 317.556 23.4709L317.979 23.627ZM318.58 22.9623V22.1904H318.129V22.9623H318.58ZM318.355 22.4159H319.128V21.9649H318.355V22.4159ZM319.353 22.1904V21.4186H318.902V22.1904H319.353ZM319.128 21.6441H319.901V21.193H319.128V21.6441ZM320.126 21.4186V20.6467H319.675V21.4186H320.126ZM319.901 20.8722C320.242 20.8722 320.534 20.8405 320.769 20.7701L320.64 20.338C320.463 20.3911 320.219 20.4212 319.901 20.4212V20.8722ZM320.769 20.7701C320.988 20.7044 321.236 20.6074 321.51 20.481L321.321 20.0714C321.06 20.192 320.833 20.2802 320.64 20.338L320.769 20.7701ZM321.516 20.4779C321.753 20.3599 321.976 20.2731 322.186 20.2159L322.067 19.7807C321.824 19.847 321.573 19.9454 321.315 20.0744L321.516 20.4779ZM322.204 20.2103C322.397 20.14 322.657 20.1003 322.992 20.1003V19.6493C322.626 19.6493 322.31 19.692 322.05 19.7864L322.204 20.2103ZM323.218 19.8748C323.218 19.5897 323.185 19.314 323.118 19.0482L322.681 19.1577C322.738 19.3859 322.767 19.6248 322.767 19.8748H323.218ZM323.118 19.0482C323.055 18.794 322.98 18.5498 322.895 18.3157L322.471 18.47C322.551 18.6887 322.621 18.9179 322.681 19.1577L323.118 19.0482ZM322.895 18.3148C322.753 17.9297 322.642 17.5774 322.562 17.2575L322.124 17.367C322.209 17.7057 322.325 18.0738 322.472 18.4709L322.895 18.3148ZM322.563 17.2605C322.486 16.9336 322.445 16.5099 322.445 15.9846H321.994C321.994 16.5296 322.036 16.991 322.124 17.3639L322.563 17.2605ZM322.219 16.2101H322.961V15.7591H322.219V16.2101ZM322.736 15.9846C322.736 16.2573 322.781 16.5201 322.873 16.7719L323.297 16.6176C323.224 16.4165 323.187 16.206 323.187 15.9846H322.736ZM322.876 16.7786C322.962 16.9928 323.058 17.197 323.166 17.391L323.56 17.1717C323.462 16.9952 323.373 16.8083 323.294 16.6109L322.876 16.7786ZM323.17 17.3975C323.409 17.7949 323.509 18.1027 323.509 18.3311H323.96C323.96 17.9831 323.812 17.5911 323.557 17.1652L323.17 17.3975ZM323.734 18.5566H324.538V18.1056H323.734V18.5566ZM324.764 18.3311V17.5592H324.313V18.3311H324.764ZM324.538 17.7847H325.311V17.3337H324.538V17.7847ZM325.536 17.5592C325.536 16.716 325.486 16.0978 325.372 15.732L324.941 15.8667C325.033 16.1596 325.085 16.7146 325.085 17.5592H325.536ZM325.372 15.732C325.262 15.3833 325.116 15.0941 324.923 14.8776L324.586 15.1774C324.723 15.3313 324.844 15.5567 324.941 15.8667L325.372 15.732ZM324.932 14.8889C324.814 14.7374 324.764 14.5896 324.764 14.4409H324.313C324.313 14.7038 324.406 14.9471 324.577 15.1661L324.932 14.8889ZM324.538 14.2154H323.765V14.6664H324.538V14.2154ZM323.991 14.4409V13.669H323.54V14.4409H323.991ZM323.765 13.4435H322.961V13.8945H323.765V13.4435ZM322.736 13.669C322.736 14.1727 322.674 14.5178 322.573 14.7291C322.523 14.8317 322.469 14.894 322.415 14.931C322.364 14.9666 322.302 14.9872 322.219 14.9872V15.4383C322.384 15.4383 322.538 15.3946 322.673 15.3016C322.805 15.2099 322.905 15.0792 322.979 14.9245C323.125 14.6212 323.187 14.1945 323.187 13.669H322.736ZM321.994 15.2127V15.9846H322.445V15.2127H321.994ZM322.219 15.7591C321.674 15.7591 321.221 15.8007 320.866 15.8893L320.976 16.3269C321.28 16.2508 321.693 16.2101 322.219 16.2101V15.7591ZM320.866 15.8893C320.527 15.974 320.159 16.0898 319.761 16.2361L319.917 16.6594C320.302 16.5175 320.655 16.4069 320.976 16.3269L320.866 15.8893ZM319.762 16.2358C319.543 16.3153 319.313 16.3851 319.073 16.4451L319.182 16.8826C319.437 16.8191 319.681 16.7448 319.916 16.6597L319.762 16.2358ZM319.069 16.4463C318.865 16.5017 318.628 16.531 318.355 16.531V16.982C318.659 16.982 318.937 16.9495 319.187 16.8814L319.069 16.4463ZM318.58 16.7565V16.0155H318.129V16.7565H318.58ZM318.355 16.241H319.128V15.79H318.355V16.241ZM319.353 16.0155V15.2436H318.902V16.0155H319.353ZM319.266 15.4217C319.469 15.2643 319.717 15.0147 320.008 14.6821L319.669 14.3849C319.384 14.711 319.158 14.9348 318.989 15.0655L319.266 15.4217ZM320.013 14.677C320.162 14.4956 320.28 14.3287 320.362 14.1774C320.442 14.0294 320.497 13.8774 320.497 13.7308H320.046C320.046 13.7694 320.029 13.8437 319.965 13.9634C319.902 14.0796 319.804 14.2214 319.665 14.39L320.013 14.677ZM320.497 13.7308C320.497 13.5611 320.365 13.4614 320.289 13.4151C320.198 13.3591 320.076 13.3113 319.936 13.2682L319.804 13.6993C319.931 13.7385 320.01 13.7731 320.053 13.7994C320.074 13.8125 320.077 13.8175 320.072 13.8113C320.065 13.8035 320.046 13.7754 320.046 13.7308H320.497ZM319.941 13.2698C319.697 13.1884 319.523 13.1204 319.414 13.0659L319.213 13.4694C319.351 13.5384 319.548 13.6144 319.799 13.6977L319.941 13.2698ZM319.414 13.0659C319.393 13.0554 319.353 13.0309 319.353 12.8971H318.902C318.902 13.1339 318.986 13.3563 319.213 13.4694L319.414 13.0659ZM319.128 12.6716H318.355V13.1227H319.128V12.6716ZM318.58 12.8971V12.0635H318.129V12.8971H318.58ZM318.58 12.0635C318.58 11.2758 318.539 10.6429 318.453 10.1707L318.009 10.2514C318.088 10.6849 318.129 11.2869 318.129 12.0635H318.58ZM318.453 10.1724C318.369 9.68581 318.242 9.20982 318.072 8.74453L317.648 8.89884C317.809 9.33921 317.929 9.78946 318.009 10.2497L318.453 10.1724ZM318.072 8.74521C317.892 8.24459 317.808 7.82923 317.808 7.49408H317.357C317.357 7.89991 317.458 8.36963 317.648 8.89816L318.072 8.74521ZM317.808 7.49408C317.808 7.03578 317.868 6.7025 317.972 6.47719L317.563 6.28798C317.42 6.59783 317.357 7.00554 317.357 7.49408H317.808ZM317.969 6.48354C318.089 6.24444 318.22 6.17585 318.355 6.17585V5.72483C317.995 5.72483 317.735 5.9444 317.566 6.28163L317.969 6.48354ZM318.187 6.10082C318.541 6.49608 318.85 6.80013 319.112 7.00717C319.243 7.11073 319.367 7.19391 319.483 7.25201C319.598 7.30915 319.718 7.34909 319.839 7.34909V6.89807C319.815 6.89807 319.766 6.88912 319.685 6.8485C319.605 6.80882 319.508 6.74534 319.391 6.65337C319.159 6.46933 318.87 6.18676 318.523 5.79986L318.187 6.10082ZM319.839 7.34909C320 7.34909 320.1 7.23161 320.15 7.15616C320.208 7.06974 320.257 6.95502 320.3 6.82448L319.872 6.68169C319.833 6.79815 319.8 6.86867 319.775 6.90575C319.763 6.92393 319.759 6.92497 319.766 6.91993C319.774 6.91354 319.8 6.89807 319.839 6.89807V7.34909ZM320.302 6.81948C320.383 6.55431 320.451 6.37351 320.504 6.26742L320.101 6.06551C320.03 6.20642 319.954 6.4167 319.871 6.68668L320.302 6.81948ZM320.504 6.26742C320.515 6.24665 320.539 6.20672 320.674 6.20672V5.75571C320.437 5.75571 320.214 5.83928 320.101 6.06551L320.504 6.26742ZM320.899 5.98122V5.20935H320.448V5.98122H320.899ZM320.674 5.43486C321.394 5.43486 321.908 5.56567 322.247 5.79691L322.501 5.42453C322.056 5.12061 321.437 4.98384 320.674 4.98384V5.43486ZM322.254 5.80146C322.575 6.00393 322.736 6.2994 322.736 6.72221H323.187C323.187 6.15703 322.956 5.71151 322.494 5.41998L322.254 5.80146ZM322.736 6.72221C322.736 7.22592 322.674 7.57102 322.573 7.78232C322.523 7.88493 322.469 7.94722 322.415 7.98415C322.364 8.0198 322.302 8.04043 322.219 8.04043V8.49145C322.384 8.49145 322.538 8.44777 322.673 8.35476C322.805 8.26305 322.905 8.13238 322.979 7.9777C323.125 7.67442 323.187 7.24766 323.187 6.72221H322.736ZM322.379 8.10638C322.219 7.94724 321.968 7.75258 321.636 7.52429L321.381 7.89611C321.708 8.12064 321.931 8.29648 322.06 8.42551L322.379 8.10638ZM321.644 7.52971C321.473 7.40235 321.321 7.3019 321.187 7.23234C321.06 7.16582 320.925 7.11419 320.797 7.11419V7.56521C320.814 7.56521 320.87 7.57533 320.979 7.63232C321.083 7.68626 321.213 7.77105 321.373 7.89069L321.644 7.52971ZM320.797 7.11419C320.699 7.11419 320.588 7.14553 320.508 7.24154C320.435 7.32972 320.417 7.43738 320.417 7.52495H320.868C320.868 7.50902 320.87 7.50315 320.87 7.50434C320.869 7.50608 320.866 7.51704 320.854 7.53049C320.843 7.54482 320.827 7.55504 320.813 7.5607C320.8 7.56581 320.794 7.56521 320.797 7.56521V7.11419ZM320.643 7.75046C320.868 7.75046 320.995 7.80458 321.066 7.87298C321.136 7.93968 321.19 8.05618 321.19 8.26594H321.641C321.641 7.98171 321.566 7.72771 321.378 7.54742C321.192 7.36882 320.933 7.29944 320.643 7.29944V7.75046ZM321.416 8.04043H320.643V8.49145H321.416V8.04043ZM320.417 8.26594V9.03781H320.868V8.26594H320.417ZM320.643 8.8123H319.87V9.26332H320.643V8.8123ZM319.644 9.03781V9.80968H320.095V9.03781H319.644ZM319.87 9.58417H319.097V10.0352H319.87V9.58417ZM318.895 9.91063C319.008 10.136 319.267 10.5213 319.657 11.0543L320.021 10.788C319.628 10.2507 319.392 9.89497 319.299 9.70872L318.895 9.91063ZM319.659 11.0577C319.858 11.3193 320.035 11.5241 320.188 11.6656C320.265 11.7364 320.341 11.7964 320.415 11.8398C320.488 11.8818 320.576 11.9185 320.674 11.9185V11.4675C320.688 11.4675 320.68 11.4721 320.642 11.4498C320.606 11.4289 320.557 11.3924 320.494 11.3345C320.369 11.2188 320.211 11.0377 320.018 10.7846L319.659 11.0577ZM320.674 11.9185C320.763 11.9185 320.83 11.8766 320.872 11.8381C320.913 11.8007 320.943 11.7559 320.964 11.7162C321.008 11.6365 321.044 11.5316 321.077 11.4128L320.642 11.294C320.612 11.4017 320.587 11.4666 320.568 11.5C320.559 11.517 320.558 11.5146 320.568 11.5055C320.579 11.4953 320.615 11.4675 320.674 11.4675V11.9185ZM321.077 11.4128C321.137 11.1923 321.194 11.0337 321.246 10.9295L320.843 10.7276C320.771 10.8704 320.705 11.0617 320.642 11.294L321.077 11.4128ZM321.24 10.9405C321.277 10.8761 321.33 10.8379 321.446 10.8379V10.3869C321.192 10.3869 320.977 10.4928 320.849 10.7165L321.24 10.9405ZM321.672 10.6124V9.84055H321.221V10.6124H321.672ZM321.446 10.0661H322.188V9.61504H321.446V10.0661ZM321.963 9.84055C321.963 10.2955 321.893 10.6237 321.774 10.845L322.171 11.0591C322.34 10.7452 322.414 10.3324 322.414 9.84055H321.963ZM321.767 10.8574C321.717 10.9659 321.662 11.0316 321.608 11.0702C321.557 11.1071 321.496 11.1279 321.416 11.1279V11.5789C321.583 11.5789 321.738 11.5329 321.872 11.436C322.004 11.3407 322.103 11.2057 322.177 11.0466L321.767 10.8574ZM321.235 11.4888C321.428 11.7456 321.703 12.0613 322.056 12.4346L322.383 12.1247C322.035 11.757 321.774 11.4552 321.596 11.218L321.235 11.4888ZM322.06 12.4392C322.249 12.6283 322.416 12.7768 322.559 12.8795C322.631 12.931 322.701 12.9743 322.768 13.0055C322.834 13.0357 322.911 13.0609 322.992 13.0609V12.6099C323.002 12.6099 322.992 12.6119 322.957 12.5959C322.924 12.5807 322.88 12.5546 322.823 12.5134C322.708 12.4309 322.56 12.3015 322.379 12.1201L322.06 12.4392ZM322.992 13.0609C323.07 13.0609 323.129 13.027 323.163 13C323.199 12.9727 323.225 12.9403 323.245 12.9126C323.285 12.857 323.321 12.7856 323.354 12.7082L322.94 12.5303C322.911 12.597 322.89 12.6337 322.878 12.6502C322.872 12.6585 322.875 12.6531 322.887 12.6438C322.898 12.6348 322.935 12.6099 322.992 12.6099V13.0609ZM323.343 12.7313C323.419 12.5979 323.49 12.5028 323.554 12.4392L323.235 12.1201C323.134 12.2212 323.04 12.3525 322.951 12.5073L323.343 12.7313ZM323.57 12.4206C323.605 12.3766 323.651 12.3508 323.734 12.3508V11.8998C323.529 11.8998 323.348 11.9768 323.218 12.1387L323.57 12.4206ZM323.509 12.1253C323.509 12.7078 323.589 13.1735 323.799 13.4621L324.164 13.1966C324.044 13.0325 323.96 12.6954 323.96 12.1253H323.509ZM323.807 13.4723C324.023 13.7352 324.316 13.9308 324.675 14.0654L324.834 13.6431C324.533 13.5307 324.312 13.3764 324.156 13.1865L323.807 13.4723ZM324.654 14.056C324.858 14.1581 324.949 14.2312 324.976 14.2675L325.337 13.9967C325.24 13.8684 325.063 13.7563 324.855 13.6525L324.654 14.056ZM325.021 14.3126C325.022 14.313 325.029 14.3179 325.037 14.3405C325.046 14.3651 325.055 14.4067 325.055 14.4718H325.506C325.506 14.279 325.458 14.0764 325.292 13.9516L325.021 14.3126ZM325.28 14.6973H326.053V14.2462H325.28V14.6973ZM325.827 14.4718V14.6879H326.278V14.4718H325.827ZM325.827 14.6879C325.827 15.8816 325.655 16.8907 325.318 17.7215L325.736 17.8909C326.1 16.9927 326.278 15.923 326.278 14.6879H325.827ZM325.319 17.7197C325.156 18.1121 324.943 18.3904 324.686 18.5714C324.431 18.7515 324.118 18.8466 323.734 18.8466V19.2976C324.196 19.2976 324.604 19.1817 324.946 18.9398C325.288 18.6989 325.548 18.3442 325.736 17.8927L325.319 17.7197ZM323.509 19.0721C323.509 19.5727 323.55 19.9727 323.644 20.255L324.072 20.1122C324.001 19.9005 323.96 19.5595 323.96 19.0721H323.509ZM323.653 20.277C323.766 20.5266 323.924 20.7619 324.123 20.9829L324.458 20.681C324.286 20.4903 324.156 20.2933 324.063 20.0901L323.653 20.277ZM324.11 20.9674C324.165 21.0401 324.209 21.111 324.244 21.1799L324.647 20.978C324.599 20.8822 324.54 20.7884 324.471 20.6965L324.11 20.9674ZM324.265 21.2144C324.292 21.2503 324.313 21.303 324.313 21.3877H324.764C324.764 21.2254 324.722 21.0722 324.626 20.9435L324.265 21.2144ZM324.538 21.1622C324.057 21.1622 323.713 21.1013 323.489 20.9976L323.3 21.4072C323.611 21.5506 324.03 21.6132 324.538 21.6132V21.1622ZM323.501 21.0038C323.286 20.8882 323.218 20.7592 323.218 20.6158H322.767C322.767 20.9664 322.966 21.2285 323.287 21.401L323.501 21.0038ZM322.992 20.3903H322.188V20.8413H322.992V20.3903ZM321.963 20.6158V21.3877H322.414V20.6158H321.963ZM322.188 21.1622C321.673 21.1622 321.273 21.2018 321.023 21.3018L321.19 21.7206C321.352 21.6558 321.674 21.6132 322.188 21.6132V21.1622ZM321.023 21.3018C320.787 21.396 320.576 21.537 320.391 21.7221L320.709 22.0412C320.854 21.897 321.014 21.791 321.19 21.7206L321.023 21.3018ZM320.391 21.7221C320.296 21.8166 320.223 21.8701 320.171 21.896L320.372 22.2995C320.485 22.2432 320.598 22.1525 320.709 22.0412L320.391 21.7221ZM320.171 21.896C320.138 21.9125 320.049 21.934 319.87 21.934V22.3851C320.062 22.3851 320.241 22.3654 320.372 22.2995L320.171 21.896ZM319.644 22.1595V22.9314H320.095V22.1595H319.644ZM319.702 22.7804C319.506 22.9977 319.283 23.2959 319.033 23.6707L319.408 23.9211C319.653 23.5549 319.862 23.2768 320.037 23.0824L319.702 22.7804ZM319.036 23.6657C318.909 23.8464 318.808 24.0095 318.739 24.1536C318.672 24.2935 318.624 24.4353 318.624 24.5678H319.075C319.075 24.5356 319.089 24.4664 319.146 24.349C319.2 24.2358 319.285 24.0953 319.405 23.9261L319.036 23.6657ZM318.624 24.5678C318.624 24.6459 318.657 24.7184 318.679 24.7614C318.705 24.8144 318.742 24.8745 318.786 24.94L319.161 24.6896C319.122 24.6315 319.097 24.5888 319.082 24.5594C319.075 24.5448 319.072 24.5371 319.071 24.535C319.07 24.5308 319.075 24.5439 319.075 24.5678H318.624ZM318.797 24.9558C318.834 25.0017 318.871 25.0962 318.871 25.2779H319.322C319.322 25.0479 319.277 24.8337 319.149 24.6738L318.797 24.9558ZM319.097 25.5034H319.87V25.0524H319.097V25.5034ZM319.644 25.2779V26.0498H320.095V25.2779H319.644ZM319.87 26.2753C320.369 26.2753 320.763 26.2347 321.029 26.1382L320.875 25.7143C320.687 25.7824 320.36 25.8242 319.87 25.8242V26.2753ZM321.029 26.1382C321.283 26.0459 321.514 25.9074 321.72 25.7244L321.42 25.3871C321.256 25.5334 321.074 25.642 320.875 25.7143L321.029 26.1382ZM321.73 25.7153C321.791 25.6535 321.859 25.6092 321.932 25.5799L321.765 25.1611C321.632 25.2141 321.514 25.2934 321.411 25.3962L321.73 25.7153ZM321.964 25.5639C322.026 25.5271 322.108 25.5034 322.219 25.5034V25.0524C322.043 25.0524 321.877 25.0905 321.732 25.1771L321.964 25.5639ZM322.445 25.2779C322.445 24.7793 322.404 24.3857 322.308 24.1201L321.884 24.2744C321.952 24.4617 321.994 24.7885 321.994 25.2779H322.445ZM322.308 24.1201C322.215 23.8661 322.076 23.6358 321.893 23.4298L321.556 23.7297C321.703 23.8943 321.811 24.0756 321.884 24.2744L322.308 24.1201ZM321.884 23.4202C321.789 23.3257 321.736 23.2528 321.71 23.2009L321.307 23.4029C321.363 23.5157 321.454 23.628 321.565 23.7393L321.884 23.4202ZM321.71 23.2009C321.691 23.1627 321.672 23.0891 321.672 22.9623H321.221C321.221 23.1236 321.243 23.2764 321.307 23.4029L321.71 23.2009ZM321.446 23.1878C321.877 23.1878 322.185 23.3079 322.4 23.5232L322.719 23.2041C322.399 22.8842 321.964 22.7368 321.446 22.7368V23.1878ZM322.407 23.5295C322.614 23.7202 322.736 24.0208 322.736 24.4751H323.187C323.187 23.9415 323.041 23.5011 322.712 23.1979L322.407 23.5295ZM322.776 24.3465C322.246 25.1108 321.766 25.6725 321.338 26.0409C320.906 26.4127 320.553 26.5652 320.272 26.5652V27.0163C320.712 27.0163 321.167 26.7829 321.632 26.3827C322.101 25.9793 322.605 25.3832 323.147 24.6038L322.776 24.3465ZM319.128 19.2976H319.901V18.8466H319.128V19.2976ZM319.675 19.0721V19.8439H320.126V19.0721H319.675ZM319.901 19.6184H319.128V20.0695H319.901V19.6184ZM319.353 19.8439V19.0721H318.902V19.8439H319.353ZM318.355 18.0747H317.582V18.5257H318.355V18.0747ZM317.808 18.3002C317.808 17.8419 317.868 17.5086 317.972 17.2833L317.563 17.0941C317.42 17.404 317.357 17.8117 317.357 18.3002H317.808ZM317.969 17.2897C318.089 17.0506 318.22 16.982 318.355 16.982V16.531C317.995 16.531 317.735 16.7505 317.566 17.0878L317.969 17.2897ZM318.129 16.7565C318.129 17.2359 318.17 17.6185 318.267 17.8834L318.69 17.7291C318.622 17.5411 318.58 17.2239 318.58 16.7565H318.129ZM318.269 17.8901C318.361 18.1199 318.497 18.3447 318.674 18.5647L319.026 18.2827C318.872 18.091 318.761 17.9042 318.688 17.7224L318.269 17.8901ZM318.675 18.5666C318.841 18.7694 318.902 18.9365 318.902 19.0721H319.353C319.353 18.796 319.229 18.5308 319.024 18.2808L318.675 18.5666ZM319.128 18.8466H318.355V19.2976H319.128V18.8466ZM318.58 19.0721V18.3002H318.129V19.0721H318.58ZM319.901 18.5257H320.674V18.0747H319.901V18.5257ZM320.448 18.3002V19.0721H320.899V18.3002H320.448ZM320.674 18.8466H319.901V19.2976H320.674V18.8466ZM320.126 19.0721V18.3002H319.675V19.0721H320.126ZM320.674 17.7847H321.416V17.3337H320.674V17.7847ZM321.19 17.5592V18.3002H321.641V17.5592H321.19ZM321.416 18.0747H320.674V18.5257H321.416V18.0747ZM320.899 18.3002V17.5592H320.448V18.3002H320.899ZM328.372 26.5652C327.639 26.5652 327.104 26.4934 326.749 26.363L326.593 26.7863C327.022 26.944 327.62 27.0163 328.372 27.0163V26.5652ZM326.739 26.3596C326.37 26.243 326.309 26.1088 326.309 26.0189H325.858C325.858 26.4229 326.19 26.6592 326.603 26.7897L326.739 26.3596ZM326.084 25.7934H325.311V26.2444H326.084V25.7934ZM325.536 26.0189C325.536 25.2316 325.495 24.6079 325.409 24.155L324.966 24.2395C325.044 24.6511 325.085 25.2418 325.085 26.0189H325.536ZM325.409 24.1569C325.324 23.691 325.197 23.2259 325.028 22.7616L324.604 22.9159C324.765 23.3574 324.885 23.7979 324.965 24.2377L325.409 24.1569ZM325.03 22.7674C324.849 22.2258 324.764 21.7672 324.764 21.3877H324.313C324.313 21.8315 324.412 22.3403 324.602 22.9102L325.03 22.7674ZM324.538 21.6132H325.28V21.1622H324.538V21.6132ZM325.055 21.3877V22.1904H325.506V21.3877H325.055ZM325.055 22.1904C325.055 22.4848 325.132 22.7465 325.325 22.932C325.516 23.1158 325.783 23.1878 326.084 23.1878V22.7368C325.848 22.7368 325.714 22.6801 325.637 22.6067C325.562 22.5348 325.506 22.4106 325.506 22.1904H325.055ZM326.309 22.9623V22.1904H325.858V22.9623H326.309ZM326.084 22.4159H326.857V21.9649H326.084V22.4159ZM327.082 22.1904V21.4186H326.631V22.1904H327.082ZM326.857 21.6441H327.63V21.193H326.857V21.6441ZM327.855 21.4186V20.6467H327.404V21.4186H327.855ZM327.63 20.8722H328.403V20.4212H327.63V20.8722ZM328.628 20.6467V19.8748H328.177V20.6467H328.628ZM328.403 20.1003H329.175V19.6493H328.403V20.1003ZM329.401 19.8748V19.0721H328.95V19.8748H329.401ZM329.175 18.8466H328.403V19.2976H329.175V18.8466ZM328.628 19.0721V18.3002H328.177V19.0721H328.628ZM328.403 18.0747H327.63V18.5257H328.403V18.0747ZM327.855 18.3002C327.855 17.5669 327.917 17.0282 328.03 16.6701L327.6 16.5341C327.466 16.9582 327.404 17.5516 327.404 18.3002H327.855ZM328.027 16.6802C328.163 16.3098 328.306 16.241 328.403 16.241V15.79C328.005 15.79 327.756 16.1122 327.604 16.5241L328.027 16.6802ZM328.177 16.0155C328.177 16.3545 328.255 16.7891 328.402 17.3113L328.836 17.1896C328.694 16.6826 328.628 16.294 328.628 16.0155H328.177ZM328.402 17.3137C328.551 17.8234 328.744 18.2746 328.983 18.6649L329.368 18.4295C329.153 18.0788 328.975 17.6655 328.835 17.1873L328.402 17.3137ZM328.988 18.6724C329.249 19.0635 329.566 19.3285 329.948 19.3285V18.8774C329.795 18.8774 329.597 18.7719 329.363 18.422L328.988 18.6724ZM330.174 19.103V18.3311H329.723V19.103H330.174ZM329.948 18.5566H330.721V18.1056H329.948V18.5566ZM330.947 18.3311V17.5592H330.496V18.3311H330.947ZM330.721 17.7847H331.494V17.3337H330.721V17.7847ZM331.269 17.5592C331.269 18.0516 331.205 18.3869 331.1 18.5913C331.05 18.6902 330.993 18.7515 330.936 18.7887C330.88 18.8251 330.812 18.8466 330.721 18.8466V19.2976C330.889 19.2976 331.045 19.2561 331.183 19.1664C331.319 19.0775 331.423 18.9497 331.502 18.7965C331.655 18.4966 331.72 18.0754 331.72 17.5592H331.269ZM330.496 19.0721V19.8439H330.947V19.0721H330.496ZM330.721 19.6184H329.917V20.0695H330.721V19.6184ZM329.692 19.8439V20.6158H330.143V19.8439H329.692ZM329.917 20.3903H329.145V20.8413H329.917V20.3903ZM328.919 20.6158V21.3877H329.37V20.6158H328.919ZM329.145 21.1622H328.372V21.6132H329.145V21.1622ZM328.146 21.3877V22.1595H328.597V21.3877H328.146ZM328.372 21.934H327.599V22.3851H328.372V21.934ZM327.373 22.1595V22.9314H327.824V22.1595H327.373ZM327.599 22.7059H326.826V23.1569H327.599V22.7059ZM326.6 22.9314V23.7033H327.051V22.9314H326.6ZM326.826 23.4778H326.053V23.9288H326.826V23.4778ZM325.827 23.7033C325.827 24.2019 325.868 24.5955 325.965 24.861L326.389 24.7067C326.32 24.5194 326.278 24.1926 326.278 23.7033H325.827ZM325.965 24.861C326.057 25.115 326.196 25.3454 326.379 25.5513L326.716 25.2515C326.57 25.0869 326.461 24.9056 326.389 24.7067L325.965 24.861ZM326.388 25.5609C326.45 25.6228 326.494 25.69 326.524 25.7631L326.942 25.5954C326.889 25.4627 326.81 25.3446 326.707 25.2418L326.388 25.5609ZM326.54 25.7954C326.577 25.8568 326.6 25.9384 326.6 26.0498H327.051C327.051 25.873 327.013 25.7075 326.926 25.5631L326.54 25.7954ZM326.826 26.2753H327.63V25.8242H326.826V26.2753ZM327.855 26.0498V25.2779H327.404V26.0498H327.855ZM327.63 25.5034H328.372V25.0524H327.63V25.5034ZM328.597 25.2779V24.4751H328.146V25.2779H328.597ZM328.372 24.7007H329.145V24.2496H328.372V24.7007ZM328.919 24.4751C328.919 24.9287 328.849 25.2709 328.726 25.5165L329.13 25.7185C329.295 25.3877 329.37 24.9684 329.37 24.4751H328.919ZM328.723 25.5229C328.673 25.6314 328.618 25.6971 328.564 25.7356C328.513 25.7725 328.452 25.7934 328.372 25.7934V26.2444C328.539 26.2444 328.694 26.1983 328.828 26.1014C328.96 26.0062 329.059 25.8712 329.133 25.7121L328.723 25.5229ZM328.146 26.0189V26.7907H328.597V26.0189H328.146ZM327.63 23.9597H328.372V23.5086H327.63V23.9597ZM328.146 23.7342V24.4751H328.597V23.7342H328.146ZM328.372 24.2496H327.63V24.7007H328.372V24.2496ZM327.855 24.4751V23.7342H327.404V24.4751H327.855ZM330.947 26.7907C330.947 26.3325 331.007 25.9992 331.111 25.7739L330.702 25.5847C330.559 25.8945 330.496 26.3022 330.496 26.7907H330.947ZM331.105 25.7863C331.221 25.5718 331.35 25.5034 331.494 25.5034V25.0524C331.144 25.0524 330.881 25.2515 330.708 25.5722L331.105 25.7863ZM331.72 25.2779V24.506H331.269V25.2779H331.72ZM331.494 24.7315H332.267V24.2805H331.494V24.7315ZM332.493 24.506C332.493 23.5521 332.4 22.8159 332.197 22.3211L331.78 22.492C331.948 22.9028 332.041 23.5663 332.041 24.506H332.493ZM332.201 22.3294C332.027 21.852 331.777 21.4176 331.451 21.0271L331.105 21.316C331.397 21.6665 331.621 22.0554 331.777 22.4837L332.201 22.3294ZM331.452 21.0286C331.272 20.809 331.137 20.6145 331.042 20.4444L330.648 20.6637C330.759 20.8642 330.912 21.0813 331.103 21.3145L331.452 21.0286ZM331.051 20.4624C330.986 20.3155 330.947 20.1129 330.947 19.8439H330.496C330.496 20.1514 330.539 20.4222 330.639 20.6458L331.051 20.4624ZM330.721 20.0695H331.463V19.6184H330.721V20.0695ZM331.238 19.8439V20.6467H331.689V19.8439H331.238ZM331.463 20.8722H332.236V20.4212H331.463V20.8722ZM332.011 20.6467V21.4186H332.462V20.6467H332.011ZM332.236 21.6441H333.009V21.193H332.236V21.6441ZM332.783 21.4186V21.9125H333.234V21.4186H332.783ZM332.798 21.8333C332.724 22.0309 332.671 22.3796 332.63 22.8501L333.079 22.8892C333.121 22.4129 333.171 22.1235 333.22 21.9918L332.798 21.8333ZM332.63 22.8492C332.588 23.3104 332.567 23.832 332.567 24.4134H333.018C333.018 23.8422 333.039 23.3346 333.079 22.8901L332.63 22.8492ZM332.567 24.4134C332.567 24.7062 332.585 24.9448 332.628 25.1165C332.649 25.2012 332.681 25.2886 332.734 25.3593C332.792 25.4364 332.884 25.5034 333.009 25.5034V25.0524C333.061 25.0524 333.091 25.0834 333.095 25.0884C333.095 25.0891 333.091 25.0841 333.085 25.0695C333.079 25.0552 333.072 25.0348 333.065 25.007C333.036 24.8906 333.018 24.6969 333.018 24.4134H332.567ZM332.783 25.2779V26.0498H333.234V25.2779H332.783ZM333.009 26.2753C333.611 26.2753 334.096 26.1373 334.387 25.7942L334.043 25.5026C333.88 25.6947 333.562 25.8242 333.009 25.8242V26.2753ZM334.387 25.7942C334.642 25.4927 334.829 25.0879 334.958 24.5939L334.522 24.4799C334.404 24.9327 334.241 25.2689 334.043 25.5026L334.387 25.7942ZM334.957 24.5989C335.039 24.3124 335.107 24.1238 335.158 24.0204L334.755 23.8184C334.683 23.962 334.606 24.1851 334.523 24.4749L334.957 24.5989ZM335.144 24.0446C335.174 23.9996 335.227 23.9597 335.359 23.9597V23.5086C335.119 23.5086 334.904 23.5922 334.769 23.7942L335.144 24.0446ZM335.584 23.7342C335.584 23.2538 335.558 22.8469 335.504 22.5167C335.45 22.1906 335.366 21.9193 335.237 21.7256L334.862 21.976C334.939 22.091 335.009 22.288 335.059 22.5897C335.108 22.8872 335.133 23.2677 335.133 23.7342H335.584ZM335.241 21.7312C335.01 21.363 334.696 21.0946 334.3 20.9321L334.129 21.3492C334.435 21.4749 334.676 21.6799 334.858 21.9704L335.241 21.7312ZM334.303 20.9334C334.168 20.8754 334.072 20.8219 334.01 20.7749L333.739 21.1359C333.842 21.2125 333.973 21.2825 334.126 21.348L334.303 20.9334ZM334.034 20.7959C334.035 20.7968 334.007 20.7678 334.007 20.6467H333.556C333.556 20.8137 333.591 20.9905 333.715 21.115L334.034 20.7959ZM333.782 20.8722C334.494 20.8722 335.001 21.0306 335.337 21.3133L335.627 20.9681C335.18 20.5921 334.554 20.4212 333.782 20.4212V20.8722ZM335.341 21.3169C335.691 21.5958 335.875 21.9989 335.875 22.5609H336.326C336.326 21.8879 336.098 21.3442 335.623 20.9645L335.341 21.3169ZM335.875 22.5609C335.875 23.1665 335.803 23.6033 335.678 23.8907L336.091 24.0716C336.253 23.7003 336.326 23.1904 336.326 22.5609H335.875ZM335.673 23.9019C335.619 24.0457 335.559 24.1331 335.503 24.183C335.451 24.2288 335.396 24.2496 335.328 24.2496V24.7007C335.507 24.7007 335.668 24.6391 335.802 24.5203C335.931 24.4056 336.026 24.2459 336.095 24.0604L335.673 23.9019ZM335.102 24.4751V25.2779H335.553V24.4751H335.102ZM335.328 25.5034C335.827 25.5034 336.221 25.4629 336.487 25.3664L336.333 24.9424C336.145 25.0106 335.818 25.0524 335.328 25.0524V25.5034ZM336.487 25.3664C336.741 25.274 336.972 25.1356 337.178 24.9525L336.878 24.6152C336.714 24.7616 336.532 24.8701 336.333 24.9424L336.487 25.3664ZM337.187 24.9435C337.333 24.7976 337.494 24.7315 337.677 24.7315V24.2805C337.366 24.2805 337.094 24.3997 336.869 24.6243L337.187 24.9435ZM337.903 24.506C337.903 23.6827 337.852 23.0752 337.738 22.7097L337.307 22.8444C337.399 23.1375 337.452 23.6827 337.452 24.506H337.903ZM337.739 22.7133C337.631 22.3453 337.484 22.0434 337.289 21.8244L336.952 22.1242C337.087 22.2757 337.209 22.5089 337.306 22.8407L337.739 22.7133ZM337.299 21.8357C337.181 21.6842 337.13 21.5364 337.13 21.3877H336.679C336.679 21.6506 336.772 21.8939 336.943 22.1129L337.299 21.8357ZM337.13 21.3877C337.13 21.1755 337.183 21.0578 337.249 20.9915C337.316 20.9251 337.434 20.8722 337.646 20.8722V20.4212C337.364 20.4212 337.111 20.4917 336.931 20.6724C336.75 20.8531 336.679 21.1058 336.679 21.3877H337.13ZM337.421 20.6467V21.4186H337.872V20.6467H337.421ZM337.646 21.6441H338.419V21.193H337.646V21.6441ZM338.194 21.4186C338.194 22.5069 338.142 23.291 338.044 23.7825L338.486 23.8711C338.593 23.3334 338.645 22.512 338.645 21.4186H338.194ZM338.044 23.7807C337.943 24.2623 337.816 24.6281 337.667 24.888L338.058 25.112C338.24 24.7956 338.38 24.3792 338.485 23.8728L338.044 23.7807ZM337.664 24.893C337.518 25.1646 337.421 25.4132 337.421 25.6175H337.872C337.872 25.5337 337.919 25.3706 338.061 25.107L337.664 24.893ZM337.421 25.6175V26.0189H337.872V25.6175H337.421ZM337.646 25.7934C336.775 25.7934 336.086 25.8449 335.589 25.9529L335.685 26.3936C336.135 26.2958 336.786 26.2444 337.646 26.2444V25.7934ZM335.589 25.9529C335.103 26.0583 334.657 26.196 334.251 26.3667L334.426 26.7825C334.803 26.6239 335.222 26.494 335.685 26.3936L335.589 25.9529ZM334.253 26.3661C333.919 26.5032 333.64 26.5652 333.411 26.5652V27.0163C333.718 27.0163 334.057 26.9342 334.424 26.7832L334.253 26.3661ZM333.411 26.5652C333.048 26.5652 332.815 26.5027 332.679 26.4108C332.559 26.3296 332.493 26.2116 332.493 26.0189H332.041C332.041 26.3407 332.166 26.6086 332.427 26.7847C332.672 26.9501 333.011 27.0163 333.411 27.0163V26.5652ZM332.267 25.7934H331.463V26.2444H332.267V25.7934ZM331.238 26.0189V26.7907H331.689V26.0189H331.238ZM331.463 26.5652H330.721V27.0163H331.463V26.5652ZM323.734 11.5789H324.507V11.1279H323.734V11.5789ZM324.282 11.3534V12.1253H324.733V11.3534H324.282ZM324.507 11.8998H323.734V12.3508H324.507V11.8998ZM323.96 12.1253V11.3534H323.509V12.1253H323.96ZM322.992 10.8071H323.734V10.356H322.992V10.8071ZM323.509 10.5815V11.3534H323.96V10.5815H323.509ZM323.734 11.1279H322.992V11.5789H323.734V11.1279ZM323.218 11.3534V10.5815H322.767V11.3534H323.218ZM318.355 5.43486H319.097V4.98384H318.355V5.43486ZM318.871 5.20935V5.95034H319.322V5.20935H318.871ZM319.097 5.72483H318.355V6.17585H319.097V5.72483ZM318.58 5.95034V5.20935H318.129V5.95034H318.58ZM328.628 16.0155C328.628 15.2874 328.72 14.7606 328.885 14.414L328.477 14.2207C328.27 14.6563 328.177 15.2616 328.177 16.0155H328.628ZM328.882 14.4183C329.061 14.0609 329.283 13.9254 329.546 13.9254V13.4744C329.068 13.4744 328.712 13.7505 328.479 14.2164L328.882 14.4183ZM329.546 13.9254C329.909 13.9254 330.142 13.9879 330.278 14.0798C330.399 14.161 330.465 14.279 330.465 14.4718H330.916C330.916 14.1499 330.791 13.882 330.53 13.7059C330.285 13.5405 329.946 13.4744 329.546 13.4744V13.9254ZM330.69 14.2462C330.104 14.2462 329.633 14.3373 329.342 14.575L329.627 14.9242C329.79 14.7915 330.122 14.6973 330.69 14.6973V14.2462ZM329.342 14.575C329.079 14.7902 328.891 15.0747 328.776 15.4192L329.204 15.562C329.295 15.289 329.437 15.0796 329.627 14.9243L329.342 14.575ZM328.784 15.3989C328.706 15.5748 328.637 15.679 328.583 15.7324L328.902 16.0515C329.013 15.9403 329.109 15.777 329.196 15.5823L328.784 15.3989ZM328.562 15.7566C328.562 15.7571 328.557 15.7644 328.534 15.7726C328.509 15.7816 328.468 15.79 328.403 15.79V16.241C328.595 16.241 328.798 16.1937 328.923 16.0274L328.562 15.7566ZM337.099 17.5592C337.099 17.0787 337.16 16.7358 337.264 16.5115L336.854 16.3223C336.711 16.633 336.648 17.0518 336.648 17.5592H337.099ZM337.257 16.5239C337.373 16.3094 337.502 16.241 337.646 16.241V15.79C337.296 15.79 337.033 15.9891 336.86 16.3098L337.257 16.5239ZM337.421 16.0155C337.421 16.469 337.351 16.8113 337.228 17.0569L337.632 17.2588C337.797 16.9281 337.872 16.5088 337.872 16.0155H337.421ZM337.225 17.0632C337.175 17.1718 337.12 17.2374 337.066 17.276C337.015 17.3129 336.954 17.3337 336.873 17.3337V17.7847C337.04 17.7847 337.196 17.7387 337.33 17.6418C337.462 17.5466 337.561 17.4115 337.635 17.2525L337.225 17.0632ZM337.872 7.52495C337.872 7.0444 337.933 6.70157 338.037 6.47719L337.627 6.28798C337.484 6.59876 337.421 7.01751 337.421 7.52495H337.872ZM338.03 6.48961C338.146 6.27517 338.275 6.20672 338.419 6.20672V5.75571C338.069 5.75571 337.806 5.95485 337.633 6.27556L338.03 6.48961ZM338.194 5.98122C338.194 6.43475 338.124 6.77701 338.001 7.02262L338.404 7.22454C338.57 6.89382 338.645 6.4745 338.645 5.98122H338.194ZM337.998 7.02897C337.948 7.13749 337.893 7.20314 337.839 7.24171C337.788 7.27861 337.727 7.29944 337.646 7.29944V7.75046C337.813 7.75046 337.969 7.70439 338.103 7.60751C338.235 7.51229 338.334 7.37725 338.408 7.21818L337.998 7.02897Z" fill="#B8B8AD" mask="url(#path-3-outside-1_548_992)"/>
<line x1="360" y1="15.75" x2="656" y2="15.75" stroke="#B8B8AD" stroke-width="0.5"/>
</svg>
